<svg width="276" height="210" viewBox="0 0 276 210" fill="none" xmlns="http://www.w3.org/2000/svg">
<g clip-path="url(#clip0_3076:1291)">
<path d="M87.7441 85.0486C78.4708 75.9751 74.5542 66.5092 76.7154 58.3949C79.489 47.9818 91.8107 40.7821 110.521 38.6417L110.59 39.239C92.1402 41.3494 80.0065 48.3876 77.3001 58.5487C75.1968 66.4455 79.0565 75.7046 88.1684 84.6203L87.7441 85.0486Z" fill="#F0F0F0"/>
<path d="M177.216 117.257C165.642 117.257 153.065 115.547 140.573 112.26C125.124 108.195 110.96 102.059 99.6105 94.5162L99.9466 94.0166C111.241 101.523 125.343 107.631 140.728 111.679C154.63 115.337 168.637 117.032 181.229 116.585L181.251 117.185C179.921 117.233 178.576 117.257 177.216 117.257Z" fill="#F0F0F0"/>
<path d="M203.767 113.476L203.573 112.907C213.924 109.428 220.399 103.825 222.296 96.7017C224.708 87.6465 219.468 77.1385 207.542 67.1133C195.555 57.0372 178.269 48.6766 158.868 43.5718L159.023 42.9906C178.509 48.1178 195.878 56.5218 207.932 66.6544C220.047 76.8378 225.356 87.5634 222.881 96.8556C220.929 104.183 214.32 109.93 203.767 113.476Z" fill="#F0F0F0"/>
<path d="M108.72 117.508C85.9788 107.483 68.4547 94.4769 59.3765 80.8853L59.8803 80.5527C68.8958 94.0502 86.3279 106.979 108.965 116.958L108.72 117.508Z" fill="#F0F0F0"/>
<path d="M188.678 134.875C186.332 134.875 183.946 134.823 181.52 134.719L181.546 134.118C199.65 134.897 215.622 132.744 227.741 127.89L227.967 128.448C217.396 132.682 203.922 134.875 188.678 134.875Z" fill="#F0F0F0"/>
<path d="M175.483 39.1807C171.724 37.9644 167.858 36.8319 163.992 35.8145C141.743 29.9602 119.872 27.8817 100.743 29.8047L100.682 29.2065C119.882 27.2772 141.828 29.3607 164.146 35.2333C168.023 36.2536 171.901 37.3894 175.67 38.6093L175.483 39.1807Z" fill="#F0F0F0"/>
<path d="M73.5312 85.9502C64.2579 76.8768 60.3413 67.4109 62.5025 59.2966C65.2761 48.8835 77.5978 41.6837 96.3082 39.5434L96.3773 40.1407C77.9274 42.2511 65.7937 49.2893 63.0873 59.4504C60.9839 67.3472 64.8437 76.6063 73.9556 85.522L73.5312 85.9502Z" fill="#F0F0F0"/>
<path d="M163.003 118.158C151.429 118.158 138.852 116.449 126.36 113.162C110.912 109.097 96.747 102.961 85.3977 95.4179L85.7337 94.9183C97.0284 102.425 111.13 108.533 126.515 112.58C140.418 116.239 154.425 117.934 167.016 117.487L167.038 118.087C165.709 118.135 164.363 118.158 163.003 118.158Z" fill="#F0F0F0"/>
<path d="M189.554 114.378L189.361 113.809C199.712 110.33 206.186 104.727 208.083 97.6035C210.495 88.5482 205.255 78.0402 193.329 68.015C181.342 57.9389 164.056 49.5783 144.656 44.4735L144.81 43.8923C164.296 49.0195 181.666 57.4235 193.719 67.5561C205.834 77.7395 211.143 88.4652 208.668 97.7573C206.716 105.085 200.107 110.832 189.554 114.378Z" fill="#F0F0F0"/>
<path d="M94.5075 118.409C71.7659 108.385 54.2419 95.3786 45.1637 81.787L45.6675 81.4544C54.6829 94.9519 72.115 107.881 94.7526 117.86L94.5075 118.409Z" fill="#F0F0F0"/>
<path d="M174.465 135.777C172.119 135.777 169.733 135.725 167.308 135.621L167.334 135.02C185.437 135.799 201.409 133.646 213.528 128.792L213.754 129.35C203.183 133.583 189.709 135.777 174.465 135.777Z" fill="#F0F0F0"/>
<path d="M161.27 40.0824C157.511 38.8661 153.645 37.7335 149.779 36.7162C127.53 30.8619 105.659 28.7834 86.5299 30.7064L86.469 30.1082C105.67 28.1789 127.615 30.2624 149.933 36.135C153.811 37.1553 157.688 38.2911 161.457 39.511L161.27 40.0824Z" fill="#F0F0F0"/>
<path d="M165.031 94.1915L170.172 93.5904L171.986 109.22L176.619 130.803C177.263 131.115 177.789 131.625 178.117 132.258C178.446 132.891 178.561 133.613 178.444 134.315C178.326 135.018 177.984 135.664 177.468 136.158C176.951 136.652 176.288 136.967 175.577 137.055C174.866 137.144 174.145 137.002 173.521 136.651C172.898 136.3 172.405 135.758 172.117 135.106C171.828 134.454 171.759 133.726 171.92 133.032C172.081 132.338 172.464 131.714 173.01 131.254L168.357 118.537L165.031 94.1915Z" fill="#FFB6B6"/>
<path d="M157.563 205.615H161.798L163.814 189.377H157.562L157.563 205.615Z" fill="#FFB6B6"/>
<path d="M156.483 209.695H170.14V209.523C170.14 208.122 169.58 206.778 168.583 205.788C167.586 204.797 166.234 204.24 164.824 204.24H156.483V209.695Z" fill="#2F2E41"/>
<path d="M125.058 203.319L129.216 204.117L134.293 188.554L128.154 187.376L125.058 203.319Z" fill="#FFB6B6"/>
<path d="M123.22 207.122L136.629 209.696L136.662 209.527C136.929 208.151 136.636 206.726 135.846 205.566C135.056 204.405 133.835 203.604 132.451 203.338L124.261 201.766L123.22 207.122Z" fill="#2F2E41"/>
<path d="M164.204 68.5795L161.743 73.2725L143.312 69.2321L145.331 60.1331C146.929 52.9309 153.336 47.7296 160.582 49.3181C167.828 50.9066 171.209 57.9458 169.611 65.148L166.641 74.3453L163.635 73.6864L164.204 68.5795Z" fill="#2F2E41"/>
<path d="M170.777 120.341C170.777 120.341 172.591 129.358 170.172 142.583C167.753 155.808 167.148 161.518 167.148 161.518C167.148 161.518 168.962 163.622 167.753 164.825C166.543 166.027 167.753 168.431 167.753 168.431L165.031 197.586L155.657 196.083L156.866 168.732C156.866 168.732 155.657 166.327 156.261 165.726C156.866 165.125 155.657 161.518 155.657 161.518L154.145 132.965L144.77 164.223C144.77 164.223 145.677 165.426 144.77 166.327C143.863 167.229 142.048 171.738 142.048 171.738L136 192.777L126.324 190.974L131.767 166.928C131.767 166.928 131.162 165.426 132.069 164.524C132.334 164.248 132.527 163.913 132.632 163.546C132.738 163.18 132.752 162.793 132.674 162.42C132.674 162.42 131.767 161.518 132.976 160.316C134.186 159.114 134.791 154.305 134.791 154.305C134.791 154.305 135.698 122.144 138.722 120.341C141.746 118.538 170.777 120.341 170.777 120.341Z" fill="#2F2E41"/>
<path d="M157.103 70.6089C161.779 70.6089 165.57 66.841 165.57 62.1931C165.57 57.5452 161.779 53.7773 157.103 53.7773C152.427 53.7773 148.636 57.5452 148.636 62.1931C148.636 66.841 152.427 70.6089 157.103 70.6089Z" fill="#FFB6B6"/>
<path d="M145.17 72.966C145.17 72.966 139.024 72.2503 137.21 74.0537L139.024 110.422C139.024 110.422 137.815 111.324 138.419 113.428C138.771 114.809 138.771 116.255 138.419 117.636C138.419 117.636 136.605 119.74 137.512 120.641C138.419 121.543 171.079 120.942 171.079 120.942C171.079 120.942 172.288 118.838 170.474 117.636C168.66 116.433 169.567 113.127 169.567 113.127C169.567 113.127 170.172 112.225 168.66 110.723C167.148 109.22 165.938 96.8966 165.938 96.8966L169.869 81.8684C169.869 81.8684 165.912 77.4287 161.389 77.0939L145.17 72.966Z" fill="#E6E6E6"/>
<path d="M165.184 82.0749L169.869 81.8681C169.869 81.8681 172.59 87.2783 172.893 92.0873L174.558 110.027L163.821 111.624L165.184 82.0749Z" fill="#E6E6E6"/>
<path d="M164.357 62.6106L167.502 58.5884C167.688 57.7416 167.528 56.8563 167.059 56.1259C166.59 55.3955 165.849 54.8794 164.998 54.6904L153.116 52.0854C152.264 51.9011 151.373 52.0595 150.638 52.5259C149.903 52.9923 149.384 53.7289 149.194 54.5747L149.187 54.6048L150.038 59.4616L150.187 59.4351C157.561 58.1283 159.662 58.5881 164.237 62.5087L164.357 62.6106Z" fill="#2F2E41"/>
<path d="M132.712 126.875L133.279 103.209L133.883 86.3771L141.141 87.2788L137.243 127.508C137.653 128.019 137.901 128.64 137.956 129.292C138.011 129.943 137.87 130.597 137.552 131.169C137.233 131.741 136.751 132.206 136.166 132.506C135.582 132.806 134.921 132.927 134.267 132.853C133.613 132.779 132.996 132.515 132.494 132.093C131.991 131.67 131.626 131.11 131.445 130.481C131.263 129.853 131.273 129.185 131.473 128.562C131.673 127.939 132.054 127.389 132.569 126.982C132.616 126.945 132.663 126.909 132.712 126.875V126.875Z" fill="#FFB6B6"/>
<path d="M142.504 74.5608L137.21 74.0534C137.21 74.0534 136.303 74.0534 135.395 77.0591C134.488 80.0647 129.501 111.831 129.501 111.831L140.536 112.826L142.504 74.5608Z" fill="#E6E6E6"/>
<path d="M92.3885 33.2223C99.9872 33.2223 106.147 27.0997 106.147 19.5472C106.147 11.9946 99.9872 5.8721 92.3885 5.8721C84.7898 5.8721 78.6298 11.9946 78.6298 19.5472C78.6298 27.0997 84.7898 33.2223 92.3885 33.2223Z" fill="#14F1D9"/>
<path d="M95.6157 27.9513C92.8347 27.9513 90.1161 27.1317 87.8038 25.596C85.4914 24.0604 83.6892 21.8777 82.6249 19.3239C81.5607 16.7702 81.2822 13.9602 81.8248 11.2492C82.3673 8.53814 83.7065 6.04791 85.673 4.09338C87.6395 2.13884 90.1449 0.807788 92.8725 0.268535C95.6001 -0.270719 98.4273 0.00604704 100.997 1.06383C103.566 2.12162 105.762 3.91292 107.307 6.21121C108.852 8.5095 109.677 11.2116 109.677 13.9757C109.673 17.681 108.19 21.2333 105.554 23.8533C102.918 26.4734 99.3436 27.9471 95.6157 27.9513V27.9513ZM95.6157 0.601125C92.9543 0.601122 90.3527 1.38552 88.1398 2.85514C85.9269 4.32475 84.2022 6.41356 83.1837 8.85744C82.1652 11.3013 81.8987 13.9905 82.418 16.5849C82.9372 19.1793 84.2188 21.5624 86.1007 23.4329C87.9825 25.3034 90.3802 26.5772 92.9905 27.0932C95.6008 27.6093 98.3064 27.3444 100.765 26.3321C103.224 25.3198 105.326 23.6056 106.804 21.4062C108.283 19.2067 109.072 16.6209 109.072 13.9757C109.068 10.4298 107.649 7.03023 105.126 4.52288C102.604 2.01554 99.1833 0.605149 95.6157 0.601125Z" fill="#3F3D56"/>
<path d="M218.993 77.7452C224.211 77.7452 228.441 73.5408 228.441 68.3544C228.441 63.168 224.211 58.9636 218.993 58.9636C213.775 58.9636 209.545 63.168 209.545 68.3544C209.545 73.5408 213.775 77.7452 218.993 77.7452Z" fill="#14F1D9"/>
<path d="M221.209 74.22C219.281 74.22 217.396 73.6516 215.792 72.5867C214.189 71.5217 212.939 70.0081 212.201 68.2373C211.463 66.4664 211.27 64.5178 211.646 62.6378C212.022 60.7578 212.951 59.031 214.315 57.6756C215.678 56.3202 217.416 55.3972 219.307 55.0233C221.199 54.6493 223.159 54.8413 224.941 55.5748C226.722 56.3083 228.245 57.5505 229.317 59.1442C230.388 60.738 230.96 62.6117 230.96 64.5285C230.957 67.0979 229.929 69.5613 228.101 71.3782C226.273 73.1951 223.794 74.217 221.209 74.22ZM221.209 55.4382C219.4 55.4382 217.632 55.9713 216.128 56.9702C214.624 57.969 213.452 59.3888 212.76 61.0498C212.067 62.7108 211.886 64.5386 212.239 66.3019C212.592 68.0653 213.463 69.685 214.742 70.9563C216.021 72.2276 217.651 73.0934 219.425 73.4442C221.199 73.7949 223.038 73.6149 224.709 72.9269C226.381 72.2388 227.809 71.0737 228.814 69.5788C229.819 68.0839 230.355 66.3264 230.355 64.5285C230.353 62.1184 229.388 59.8078 227.673 58.1037C225.959 56.3995 223.634 55.4409 221.209 55.4382V55.4382Z" fill="#3F3D56"/>
<path d="M241.574 210H60.1331C60.0529 210 59.976 209.968 59.9193 209.912C59.8626 209.856 59.8307 209.779 59.8307 209.699C59.8307 209.62 59.8626 209.543 59.9193 209.487C59.976 209.431 60.0529 209.399 60.1331 209.399H241.574C241.654 209.399 241.731 209.431 241.788 209.487C241.845 209.543 241.876 209.62 241.876 209.699C241.876 209.779 241.845 209.856 241.788 209.912C241.731 209.968 241.654 210 241.574 210Z" fill="#CACACA"/>
<path d="M228.932 197.775C227.978 198.109 226.954 198.192 225.958 198.018C224.962 197.843 224.028 197.417 223.245 196.779C221.254 195.118 220.629 192.38 220.121 189.845L218.618 182.348L221.765 184.501C224.027 186.05 226.341 187.648 227.908 189.891C229.475 192.134 230.159 195.197 228.9 197.624" fill="#FD6584"/>
<path d="M228.446 207.374C228.843 204.506 229.25 201.601 228.972 198.703C228.725 196.128 227.935 193.614 226.326 191.553C225.472 190.46 224.433 189.525 223.256 188.787C222.949 188.595 222.666 189.078 222.972 189.27C225.009 190.55 226.585 192.44 227.472 194.667C228.452 197.144 228.609 199.844 228.44 202.475C228.338 204.066 228.121 205.647 227.903 207.226C227.886 207.297 227.897 207.372 227.933 207.436C227.97 207.5 228.029 207.548 228.1 207.57C228.172 207.589 228.248 207.579 228.313 207.543C228.378 207.506 228.426 207.446 228.446 207.374L228.446 207.374Z" fill="#F2F2F2"/>
<path d="M225.596 202.773C225.186 203.391 224.624 203.894 223.962 204.233C223.301 204.573 222.562 204.737 221.818 204.71C219.906 204.62 218.312 203.294 216.877 202.035L212.633 198.31L215.442 198.176C217.462 198.08 219.534 197.99 221.46 198.61C223.385 199.229 225.158 200.719 225.51 202.697" fill="#E6E6E6"/>
<path d="M229.566 209.023C227.661 205.67 225.448 201.943 221.496 200.752C220.398 200.422 219.246 200.304 218.102 200.404C217.742 200.434 217.832 200.987 218.193 200.956C220.109 200.798 222.022 201.301 223.61 202.38C225.137 203.413 226.326 204.85 227.332 206.373C227.949 207.305 228.501 208.279 229.053 209.251C229.228 209.561 229.744 209.337 229.566 209.023Z" fill="#F2F2F2"/>
<path d="M79.3347 201.679C80.0218 201.964 80.7711 202.068 81.5105 201.982C82.25 201.895 82.9545 201.621 83.5564 201.186C85.0909 200.048 85.6661 198.063 86.1479 196.222L87.5712 190.775L85.1673 192.226C83.4385 193.269 81.6701 194.346 80.4222 195.93C79.1743 197.513 78.543 199.732 79.3654 201.57" fill="#E6E6E6"/>
<path d="M79.5597 209.067C79.2526 205.228 78.9906 200.909 81.5964 197.725C82.3216 196.841 83.2103 196.102 84.2145 195.55C84.5303 195.374 84.7667 195.883 84.4499 196.058C82.772 196.992 81.4692 198.472 80.7607 200.249C80.0758 201.955 79.8982 203.807 79.921 205.629C79.934 206.744 80.0243 207.859 80.1131 208.971C80.1421 209.326 79.5883 209.426 79.5597 209.067Z" fill="#F2F2F2"/>
<path d="M73.851 114.026C81.352 114.026 87.4327 107.982 87.4327 100.527C87.4327 93.0714 81.352 87.0276 73.851 87.0276C66.35 87.0276 60.2692 93.0714 60.2692 100.527C60.2692 107.982 66.35 114.026 73.851 114.026Z" fill="#E4E4E4"/>
<path d="M77.0367 108.827C74.2907 108.827 71.6064 108.018 69.3232 106.501C67.0399 104.985 65.2604 102.83 64.2095 100.308C63.1587 97.7867 62.8838 95.012 63.4195 92.3351C63.9552 89.6582 65.2776 87.1993 67.2193 85.2694C69.1611 83.3395 71.635 82.0252 74.3282 81.4927C77.0215 80.9603 79.8131 81.2336 82.3501 82.2781C84.8871 83.3225 87.0555 85.0913 88.5811 87.3607C90.1067 89.6301 90.9209 92.2981 90.9209 95.0275C90.9168 98.6861 89.4526 102.194 86.8497 104.781C84.2468 107.368 80.7178 108.823 77.0367 108.827V108.827ZM77.0367 81.8287C74.4104 81.8287 71.8429 82.6028 69.6592 84.0531C67.4754 85.5034 65.7734 87.5648 64.7683 89.9765C63.7632 92.3882 63.5003 95.042 64.0127 97.6023C64.525 100.163 65.7898 102.514 67.6469 104.36C69.5041 106.206 71.8702 107.463 74.4461 107.972C77.0221 108.482 79.6921 108.22 82.1186 107.221C84.545 106.222 86.619 104.531 88.0781 102.36C89.5373 100.19 90.3161 97.6379 90.3161 95.0275C90.3122 91.5281 88.9118 88.1733 86.4223 85.6989C83.9328 83.2245 80.5574 81.8327 77.0367 81.8287V81.8287Z" fill="#2F2E41"/>
<path d="M65.6516 53.6034C66.9877 53.6034 68.0708 52.5269 68.0708 51.1989C68.0708 49.871 66.9877 48.7944 65.6516 48.7944C64.3155 48.7944 63.2324 49.871 63.2324 51.1989C63.2324 52.5269 64.3155 53.6034 65.6516 53.6034Z" fill="#F2F2F2"/>
<path d="M189.939 41.5809C191.275 41.5809 192.358 40.5043 192.358 39.1763C192.358 37.8484 191.275 36.7718 189.939 36.7718C188.603 36.7718 187.519 37.8484 187.519 39.1763C187.519 40.5043 188.603 41.5809 189.939 41.5809Z" fill="#FD6584"/>
<path d="M205.966 126.941C207.302 126.941 208.385 125.865 208.385 124.537C208.385 123.209 207.302 122.132 205.966 122.132C204.63 122.132 203.547 123.209 203.547 124.537C203.547 125.865 204.63 126.941 205.966 126.941Z" fill="#F2F2F2"/>
<path d="M97.624 60.6069L97.7157 60.0126L109.531 61.8143C108.327 60.6589 104.34 57.0859 100.723 56.7236C96.403 56.2909 94.5021 58.1291 94.2509 60.6065C93.9997 63.0839 95.4931 65.2623 99.8135 65.6951C103.476 66.0621 108.173 63.2777 109.519 62.4206L97.624 60.6069Z" fill="#F2F2F2"/>
<path d="M210.688 28.7724L210.324 28.2926L219.863 21.1322C218.19 21.1842 212.833 21.533 210.05 23.8565C206.725 26.6323 206.725 29.2683 208.336 31.175C209.947 33.0817 212.559 33.537 215.884 30.7612C218.703 28.4082 219.971 23.1207 220.292 21.5637L210.688 28.7724Z" fill="#F2F2F2"/>
<path d="M188.165 97.703L187.903 97.3578L194.765 92.2063C193.562 92.2437 189.708 92.4947 187.705 94.1663C185.313 96.1633 185.313 98.0597 186.472 99.4315C187.631 100.803 189.511 101.131 191.903 99.1337C193.931 97.441 194.843 93.6368 195.074 92.5167L188.165 97.703Z" fill="#F2F2F2"/>
<path d="M133.837 15.7051C135.696 10.7362 140.089 6.4427 145.398 5.932C142.207 10.7458 140.831 16.5267 141.514 22.2517C141.786 24.4586 142.319 26.8852 141.122 28.7635C140.378 29.9323 139.065 30.6518 137.712 30.9765C136.359 31.3012 134.949 31.276 133.558 31.249L133.246 31.4019C132.267 26.1905 131.978 20.674 133.837 15.7051Z" fill="#F0F0F0"/>
<path d="M145.424 6.04027C141.805 8.55335 139.074 12.136 137.62 16.2793C137.292 17.1657 137.105 18.0982 137.068 19.0423C137.062 19.9631 137.305 20.8687 137.77 21.665C138.189 22.4162 138.705 23.1363 138.932 23.9755C139.043 24.4069 139.06 24.8564 138.983 25.2948C138.906 25.7332 138.737 26.1505 138.486 26.5193C137.886 27.4545 136.984 28.1195 136.079 28.7393C135.073 29.4275 134.018 30.1265 133.403 31.2077C133.329 31.3387 133.129 31.2161 133.203 31.0853C134.273 29.2043 136.519 28.521 137.892 26.9233C138.533 26.1777 138.952 25.2356 138.754 24.2429C138.581 23.3748 138.049 22.6317 137.619 21.8748C137.153 21.1046 136.885 20.2329 136.837 19.3357C136.825 18.3928 136.975 17.4548 137.28 16.5619C137.934 14.5407 138.904 12.6343 140.154 10.9126C141.57 8.93975 143.315 7.22217 145.313 5.83415C145.437 5.74829 145.547 5.95497 145.424 6.04028V6.04027Z" fill="white"/>
<path d="M138.01 14.9178C137.343 14.5809 136.819 14.0197 136.531 13.3342C136.242 12.6487 136.209 11.8837 136.435 11.1757C136.482 11.0326 136.708 11.0975 136.661 11.2408C136.449 11.8997 136.48 12.6123 136.75 13.2501C137.02 13.8879 137.51 14.4087 138.133 14.7187C138.268 14.7863 138.144 14.9849 138.01 14.9178Z" fill="white"/>
<path d="M137.507 21.312C138.964 20.8545 140.194 19.868 140.952 18.5492C141.027 18.4184 141.227 18.541 141.152 18.6715C140.361 20.0425 139.079 21.0665 137.562 21.5392C137.417 21.5842 137.363 21.3567 137.507 21.312V21.312Z" fill="white"/>
<path d="M141.731 9.20507C141.961 9.38879 142.234 9.51273 142.525 9.56578C142.815 9.61882 143.115 9.5993 143.396 9.50897C143.54 9.46221 143.593 9.6898 143.45 9.73625C143.139 9.83462 142.809 9.85578 142.488 9.79788C142.166 9.73998 141.864 9.60478 141.608 9.4041C141.582 9.3872 141.564 9.36119 141.557 9.33133C141.549 9.30148 141.554 9.27004 141.569 9.24339C141.586 9.21712 141.612 9.19836 141.642 9.19118C141.672 9.184 141.704 9.18899 141.731 9.20507V9.20507Z" fill="white"/>
<path d="M158.195 18.5978C158.106 18.6296 158.017 18.6613 157.927 18.6949C156.732 19.1278 155.574 19.6565 154.464 20.2757C154.378 20.3223 154.291 20.3707 154.206 20.4196C151.549 21.9399 149.199 23.9372 147.276 26.31C146.512 27.2549 145.821 28.2563 145.209 29.3054C144.364 30.7543 143.565 32.392 142.325 33.4479C142.196 33.5595 142.061 33.6632 141.92 33.7582L133.458 31.7679C133.441 31.7538 133.423 31.7415 133.406 31.7274L133.065 31.6633C133.093 31.607 133.123 31.5492 133.15 31.4929C133.166 31.4602 133.184 31.4279 133.2 31.3952C133.211 31.3735 133.223 31.3518 133.232 31.3316C133.235 31.3244 133.239 31.3172 133.242 31.3119C133.251 31.2917 133.262 31.2739 133.27 31.2556C133.437 30.9321 133.606 30.6091 133.778 30.2868C133.778 30.2849 133.778 30.2849 133.781 30.2834C135.067 27.815 136.643 25.5069 138.476 23.4075C138.532 23.3456 138.587 23.2817 138.647 23.2207C139.484 22.2975 140.396 21.4438 141.373 20.6682C141.909 20.2452 142.467 19.8494 143.044 19.4825C144.536 18.5372 146.168 17.831 147.881 17.3899C151.295 16.5109 154.954 16.7271 157.966 18.463C158.043 18.5074 158.118 18.5515 158.195 18.5978Z" fill="#F0F0F0"/>
<path d="M158.151 18.7001C153.739 18.5409 149.388 19.7674 145.718 22.2056C144.918 22.7165 144.204 23.3495 143.603 24.0813C143.041 24.8129 142.685 25.681 142.574 26.5952C142.454 27.4456 142.43 28.3293 142.103 29.1357C141.93 29.546 141.671 29.9153 141.344 30.2193C141.017 30.5233 140.629 30.7552 140.206 30.8998C139.16 31.2873 138.037 31.2783 136.939 31.2315C135.719 31.1795 134.454 31.1063 133.308 31.6015C133.169 31.6615 133.083 31.4439 133.222 31.384C135.216 30.5224 137.422 31.3206 139.487 30.8669C140.451 30.6552 141.356 30.1537 141.799 29.2424C142.186 28.4456 142.212 27.5343 142.327 26.6723C142.422 25.7788 142.735 24.9221 143.24 24.1769C143.802 23.4171 144.49 22.7578 145.274 22.2273C147.021 21.0051 148.95 20.0634 150.991 19.4368C153.317 18.7088 155.751 18.3815 158.187 18.4692C158.338 18.4747 158.3 18.7055 158.151 18.7001L158.151 18.7001Z" fill="white"/>
<path d="M146.853 21.3513C146.525 20.6837 146.447 19.9219 146.631 19.202C146.816 18.4821 147.253 17.8511 147.863 17.4215C147.986 17.335 148.128 17.522 148.004 17.6086C147.435 18.0076 147.029 18.5955 146.858 19.2662C146.687 19.9369 146.763 20.6462 147.072 21.2661C147.139 21.4009 146.92 21.4854 146.853 21.3513V21.3513Z" fill="white"/>
<path d="M142.578 26.156C144.019 26.6628 145.599 26.6112 147.003 26.0117C147.142 25.9522 147.227 26.1698 147.089 26.2293C145.626 26.8504 143.982 26.9007 142.484 26.3701C142.342 26.3195 142.437 26.1056 142.578 26.156Z" fill="white"/>
<path d="M153.285 19.017C153.357 19.3016 153.5 19.5638 153.7 19.78C153.9 19.9963 154.151 20.1598 154.43 20.2559C154.573 20.3047 154.478 20.5185 154.336 20.47C154.028 20.3624 153.751 20.1815 153.53 19.943C153.308 19.7046 153.149 19.4159 153.066 19.1022C153.056 19.0733 153.057 19.0415 153.069 19.0134C153.081 18.9853 153.104 18.9629 153.132 18.9508C153.161 18.9397 153.194 18.9404 153.222 18.9527C153.251 18.9651 153.273 18.9882 153.285 19.017H153.285Z" fill="white"/>
<path d="M108.133 84.2338C109.992 79.2649 114.385 74.9715 119.694 74.4607C116.503 79.2746 115.127 85.0554 115.81 90.7804C116.082 92.9874 116.615 95.4139 115.418 97.2922C114.674 98.461 113.361 99.1805 112.008 99.5052C110.655 99.8299 109.245 99.8048 107.854 99.7778L107.542 99.9307C106.563 94.7192 106.273 89.2028 108.133 84.2338Z" fill="#F0F0F0"/>
<path d="M119.72 74.569C116.101 77.0821 113.37 80.6647 111.916 84.808C111.587 85.6945 111.401 86.6269 111.364 87.571C111.358 88.4918 111.601 89.3974 112.066 90.1937C112.485 90.9449 113.001 91.665 113.228 92.5043C113.339 92.9356 113.356 93.3852 113.279 93.8236C113.202 94.2619 113.033 94.6792 112.782 95.048C112.182 95.9832 111.28 96.6482 110.374 97.268C109.369 97.9562 108.314 98.6552 107.699 99.7364C107.625 99.8674 107.425 99.7448 107.499 99.614C108.569 97.733 110.815 97.0498 112.188 95.452C112.829 94.7064 113.248 93.7644 113.05 92.7716C112.877 91.9035 112.345 91.1604 111.915 90.4035C111.449 89.6333 111.181 88.7616 111.133 87.8645C111.121 86.9215 111.271 85.9835 111.576 85.0906C112.23 83.0694 113.2 81.163 114.45 79.4413C115.866 77.4685 117.611 75.7509 119.609 74.3629C119.733 74.277 119.843 74.4837 119.72 74.569V74.569Z" fill="white"/>
<path d="M112.306 83.4465C111.639 83.1097 111.115 82.5484 110.827 81.8629C110.538 81.1775 110.505 80.4124 110.731 79.7044C110.778 79.5613 111.004 79.6263 110.957 79.7695C110.745 80.4284 110.776 81.1411 111.046 81.7788C111.316 82.4166 111.806 82.9375 112.429 83.2475C112.564 83.315 112.44 83.5136 112.306 83.4465Z" fill="white"/>
<path d="M111.803 89.8407C113.26 89.3832 114.49 88.3967 115.248 87.0779C115.323 86.9471 115.523 87.0697 115.448 87.2003C114.657 88.5712 113.375 89.5953 111.858 90.068C111.713 90.1129 111.659 89.8854 111.803 89.8407Z" fill="white"/>
<path d="M116.027 77.7338C116.257 77.9175 116.53 78.0415 116.821 78.0945C117.111 78.1476 117.411 78.128 117.692 78.0377C117.836 77.9909 117.889 78.2185 117.746 78.265C117.435 78.3633 117.105 78.3845 116.783 78.3266C116.462 78.2687 116.16 78.1335 115.904 77.9328C115.878 77.9159 115.86 77.8899 115.852 77.8601C115.845 77.8302 115.85 77.7988 115.865 77.7721C115.882 77.7459 115.908 77.7271 115.938 77.7199C115.968 77.7127 116 77.7177 116.027 77.7338Z" fill="white"/>
<path d="M132.491 87.1266C132.402 87.1583 132.313 87.19 132.223 87.2237C131.028 87.6565 129.869 88.1852 128.76 88.8044C128.673 88.851 128.586 88.8994 128.501 88.9483C125.845 90.4686 123.495 92.4659 121.572 94.8388C120.807 95.7837 120.116 96.785 119.505 97.8341C118.66 99.283 117.861 100.921 116.62 101.977C116.492 102.088 116.357 102.192 116.216 102.287L107.754 100.297C107.737 100.282 107.719 100.27 107.702 100.256L107.361 100.192C107.388 100.136 107.418 100.078 107.446 100.022C107.462 99.9889 107.48 99.9566 107.496 99.9239C107.507 99.9022 107.519 99.8806 107.527 99.8604C107.531 99.8531 107.535 99.8459 107.538 99.8406C107.547 99.8204 107.557 99.8026 107.566 99.7843C107.733 99.4608 107.902 99.1379 108.074 98.8155C108.074 98.8136 108.074 98.8136 108.077 98.8122C109.363 96.3437 110.939 94.0356 112.772 91.9362C112.827 91.8743 112.883 91.8104 112.943 91.7494C113.78 90.8262 114.692 89.9725 115.669 89.1969C116.205 88.7739 116.763 88.3782 117.34 88.0112C118.832 87.0659 120.464 86.3598 122.176 85.9186C125.591 85.0397 129.25 85.2558 132.262 86.9917C132.339 87.0361 132.414 87.0802 132.491 87.1266Z" fill="#F0F0F0"/>
<path d="M132.446 87.2288C128.034 87.0696 123.684 88.2962 120.013 90.7343C119.214 91.2452 118.5 91.8782 117.899 92.61C117.336 93.3417 116.981 94.2097 116.87 95.1239C116.75 95.9743 116.725 96.858 116.399 97.6644C116.226 98.0748 115.967 98.444 115.64 98.7481C115.313 99.0521 114.925 99.284 114.502 99.4285C113.456 99.816 112.333 99.807 111.235 99.7602C110.015 99.7082 108.749 99.635 107.603 100.13C107.465 100.19 107.379 99.9726 107.518 99.9127C109.511 99.0511 111.718 99.8493 113.783 99.3957C114.746 99.184 115.651 98.6824 116.095 97.7712C116.482 96.9743 116.508 96.0631 116.623 95.201C116.718 94.3076 117.031 93.4508 117.536 92.7057C118.098 91.9458 118.786 91.2865 119.57 90.7561C121.317 89.5338 123.246 88.5921 125.287 87.9655C127.613 87.2375 130.046 86.9103 132.483 86.998C132.634 87.0034 132.596 87.2343 132.446 87.2288L132.446 87.2288Z" fill="white"/>
<path d="M121.149 89.8801C120.821 89.2124 120.742 88.4506 120.927 87.7308C121.112 87.0109 121.549 86.3798 122.159 85.9502C122.282 85.8637 122.423 86.0507 122.3 86.1373C121.731 86.5363 121.324 87.1242 121.154 87.7949C120.983 88.4656 121.059 89.1749 121.368 89.7948C121.435 89.9296 121.215 90.0141 121.149 89.8801V89.8801Z" fill="white"/>
<path d="M116.874 94.6848C118.315 95.1915 119.895 95.14 121.299 94.5404C121.438 94.4809 121.523 94.6986 121.384 94.758C119.922 95.3792 118.278 95.4295 116.78 94.8989C116.637 94.8482 116.732 94.6344 116.874 94.6848V94.6848Z" fill="white"/>
<path d="M127.581 87.5457C127.653 87.8303 127.796 88.0925 127.996 88.3087C128.196 88.525 128.447 88.6885 128.726 88.7846C128.869 88.8334 128.774 89.0472 128.632 88.9987C128.324 88.8911 128.047 88.7102 127.826 88.4718C127.604 88.2333 127.445 87.9446 127.362 87.6309C127.351 87.602 127.352 87.5703 127.365 87.5421C127.377 87.514 127.4 87.4916 127.428 87.4795C127.457 87.4684 127.49 87.4691 127.518 87.4815C127.547 87.4939 127.569 87.5169 127.581 87.5457H127.581Z" fill="white"/>
<path d="M213.473 121.478C212.524 117.952 213.268 113.802 216.043 111.412C216.182 115.379 217.728 119.169 220.407 122.111C221.445 123.243 222.717 124.393 222.799 125.922C222.804 126.885 222.436 127.814 221.772 128.515C221.111 129.207 220.364 129.811 219.549 130.314L219.436 130.523C216.796 127.986 214.422 125.004 213.473 121.478Z" fill="#F0F0F0"/>
<path d="M216.101 111.463C215.077 114.307 214.981 117.4 215.827 120.302C215.998 120.93 216.267 121.527 216.625 122.071C216.991 122.591 217.49 123.003 218.07 123.266C218.629 123.48 219.159 123.761 219.649 124.102C219.884 124.3 220.074 124.546 220.207 124.823C220.34 125.099 220.412 125.4 220.419 125.707C220.415 126.463 220.258 127.211 219.958 127.907C219.67 128.691 219.358 129.501 219.446 130.352C219.457 130.455 219.295 130.465 219.285 130.363C219.131 128.883 220.117 127.61 220.248 126.169C220.297 125.837 220.27 125.498 220.167 125.178C220.065 124.858 219.89 124.565 219.657 124.323C219.211 123.904 218.615 123.698 218.07 123.443C217.5 123.195 216.999 122.812 216.612 122.328C216.228 121.803 215.936 121.217 215.749 120.595C215.306 119.202 215.086 117.747 215.097 116.285C215.1 114.617 215.391 112.962 215.956 111.391C215.991 111.294 216.136 111.366 216.101 111.463L216.101 111.463Z" fill="white"/>
<path d="M215.499 119.383C214.99 119.458 214.471 119.351 214.034 119.08C213.597 118.81 213.271 118.394 213.115 117.906C213.084 117.808 213.236 117.755 213.268 117.853C213.413 118.307 213.716 118.695 214.123 118.946C214.531 119.197 215.015 119.295 215.488 119.223C215.591 119.207 215.601 119.368 215.499 119.383V119.383Z" fill="white"/>
<path d="M217.781 123.172C218.416 122.338 218.711 121.296 218.607 120.256C218.597 120.153 218.758 120.142 218.769 120.245C218.874 121.328 218.565 122.411 217.903 123.278C217.84 123.36 217.718 123.254 217.781 123.172V123.172Z" fill="white"/>
<path d="M215.297 114.702C215.5 114.714 215.703 114.676 215.887 114.59C216.072 114.505 216.232 114.375 216.353 114.213C216.416 114.13 216.537 114.237 216.475 114.319C216.34 114.498 216.163 114.641 215.959 114.735C215.756 114.83 215.532 114.874 215.308 114.863C215.287 114.864 215.266 114.856 215.25 114.842C215.234 114.828 215.224 114.809 215.222 114.788C215.22 114.767 215.228 114.746 215.242 114.73C215.256 114.714 215.276 114.704 215.297 114.702V114.702Z" fill="white"/>
<path d="M228.305 113.452C228.268 113.505 228.231 113.559 228.194 113.613C227.697 114.329 227.258 115.085 226.884 115.872C226.854 115.933 226.825 115.994 226.797 116.055C225.915 117.961 225.397 120.013 225.269 122.107C225.219 122.94 225.233 123.776 225.31 124.607C225.417 125.755 225.625 126.991 225.352 128.075C225.325 128.189 225.291 128.3 225.25 128.41L219.701 130.645C219.686 130.644 219.671 130.644 219.656 130.643L219.439 130.742C219.432 130.699 219.425 130.655 219.418 130.612C219.414 130.588 219.411 130.562 219.407 130.538C219.405 130.521 219.402 130.505 219.399 130.49C219.398 130.484 219.398 130.479 219.397 130.474C219.394 130.459 219.393 130.445 219.39 130.432C219.354 130.184 219.32 129.936 219.287 129.687C219.287 129.685 219.287 129.685 219.287 129.684C219.019 127.789 218.978 125.869 219.165 123.964C219.172 123.907 219.178 123.849 219.186 123.791C219.286 122.942 219.456 122.101 219.693 121.279C219.825 120.829 219.979 120.386 220.155 119.951C220.614 118.83 221.247 117.787 222.031 116.86C223.595 115.014 225.736 113.686 228.123 113.467C228.184 113.462 228.244 113.457 228.305 113.452Z" fill="#F0F0F0"/>
<path d="M228.322 113.527C225.781 115.186 223.831 117.598 222.748 120.421C222.504 121.024 222.358 121.662 222.314 122.311C222.291 122.945 222.44 123.573 222.744 124.13C223.06 124.635 223.314 125.176 223.498 125.742C223.566 126.041 223.569 126.351 223.507 126.651C223.446 126.952 223.321 127.235 223.141 127.484C222.68 128.086 222.101 128.59 221.44 128.965C220.735 129.419 219.995 129.879 219.55 130.611C219.496 130.7 219.361 130.611 219.415 130.523C220.188 129.249 221.747 128.823 222.724 127.751C222.965 127.515 223.149 127.228 223.261 126.911C223.373 126.594 223.41 126.256 223.37 125.923C223.268 125.322 222.917 124.8 222.636 124.271C222.331 123.732 222.164 123.127 222.148 122.508C222.159 121.859 222.281 121.217 222.508 120.608C222.999 119.23 223.704 117.937 224.598 116.777C225.612 115.447 226.847 114.299 228.249 113.383C228.336 113.327 228.408 113.471 228.321 113.527L228.322 113.527Z" fill="white"/>
<path d="M223.043 119.491C222.591 119.246 222.242 118.85 222.057 118.372C221.872 117.895 221.864 117.368 222.034 116.885C222.069 116.788 222.223 116.837 222.188 116.934C222.029 117.384 222.037 117.875 222.21 118.319C222.383 118.763 222.71 119.131 223.132 119.357C223.223 119.406 223.134 119.54 223.043 119.491V119.491Z" fill="white"/>
<path d="M222.57 123.882C223.582 123.595 224.448 122.941 224.996 122.048C225.05 121.959 225.186 122.048 225.131 122.136C224.56 123.064 223.657 123.743 222.603 124.039C222.503 124.067 222.471 123.91 222.57 123.882V123.882Z" fill="white"/>
<path d="M225.717 115.633C225.872 115.764 226.057 115.854 226.256 115.897C226.455 115.939 226.662 115.931 226.857 115.875C226.957 115.845 226.989 116.003 226.89 116.032C226.674 116.094 226.446 116.102 226.226 116.056C226.006 116.009 225.801 115.911 225.629 115.767C225.611 115.755 225.599 115.737 225.595 115.716C225.59 115.696 225.594 115.674 225.605 115.656C225.617 115.638 225.635 115.626 225.656 115.622C225.677 115.617 225.699 115.621 225.717 115.633V115.633Z" fill="white"/>
</g>
<defs>
<clipPath id="clip0_3076:1291">
<rect width="276" height="210" fill="white"/>
</clipPath>
</defs>
</svg>
