<?xml version="1.0" encoding="utf-8"?>
<!-- Generator: Adobe Illustrator 25.4.1, SVG Export Plug-In . SVG Version: 6.00 Build 0)  -->
<svg version="1.1" id="Layer_1" xmlns="http://www.w3.org/2000/svg" xmlns:xlink="http://www.w3.org/1999/xlink" x="0px" y="0px"
	 viewBox="0 0 100 100" style="enable-background:new 0 0 100 100;" xml:space="preserve">
<style type="text/css">
	.st0{fill:#00904C;}
	.st1{fill:#EBAE2F;}
	.st2{fill:#1D4C94;}
	.st3{fill:#FAF6E5;}
	.st4{fill:#FFFFFF;}
	.st5{fill:#009B4D;}
	.st6{fill:#E8F0F6;}
	.st7{clip-path:url(#SVGID_00000029746739983060404940000000957840884007624343_);fill:#E2E0DF;}
	.st8{clip-path:url(#SVGID_00000029746739983060404940000000957840884007624343_);fill:#31438E;}
	.st9{clip-path:url(#SVGID_00000029746739983060404940000000957840884007624343_);fill:#D82F35;}
	.st10{clip-path:url(#SVGID_00000028299394429015516320000000046145096471785151_);fill:#D83136;}
	.st11{clip-path:url(#SVGID_00000028299394429015516320000000046145096471785151_);fill:#EEC22D;}
	.st12{clip-path:url(#SVGID_00000085209390804122987400000000873784843556689845_);fill:#D82F35;}
	.st13{clip-path:url(#SVGID_00000085209390804122987400000000873784843556689845_);fill:#E8E6E5;}
	.st14{clip-path:url(#SVGID_00000085209390804122987400000000873784843556689845_);fill:#31438E;}
	.st15{fill:url(#SVGID_00000123411221927689614410000006797441350365652129_);}
	.st16{clip-path:url(#SVGID_00000183933956577718771150000000739681077130598040_);fill:#D82F35;}
	.st17{clip-path:url(#SVGID_00000183933956577718771150000000739681077130598040_);fill:#E8E6E5;}
	.st18{clip-path:url(#SVGID_00000183933956577718771150000000739681077130598040_);fill:#31438E;}
	.st19{fill:url(#SVGID_00000132810037067060239460000002326153511532973716_);}
	.st20{clip-path:url(#SVGID_00000100369100632316850190000000896820872517217430_);fill:#FFFFFF;}
	.st21{clip-path:url(#SVGID_00000100369100632316850190000000896820872517217430_);fill:#D82729;}
	.st22{clip-path:url(#SVGID_00000067235803209270856180000002854331968713397673_);fill:#D9343D;}
	.st23{clip-path:url(#SVGID_00000067235803209270856180000002854331968713397673_);fill:#009A4D;}
	.st24{clip-path:url(#SVGID_00000067235803209270856180000002854331968713397673_);fill:#EEECEA;}
	.st25{clip-path:url(#SVGID_00000015337115697792920710000009401313443639385527_);fill:#393989;}
	.st26{clip-path:url(#SVGID_00000015337115697792920710000009401313443639385527_);fill:#FFFFFF;}
	.st27{clip-path:url(#SVGID_00000015337115697792920710000009401313443639385527_);}
	.st28{fill:#D9343D;}
	.st29{clip-path:url(#SVGID_00000020384384264014076780000007767021210254296762_);}
	.st30{fill:#008649;}
	.st31{fill:#EE343A;}
	.st32{fill:#F4E12A;stroke:#211316;stroke-width:2.160600e-02;stroke-miterlimit:10;}
	.st33{fill:#F4E12A;stroke:#211316;stroke-width:1.895800e-02;stroke-miterlimit:10;}
	.st34{fill:#F4E12A;stroke:#211316;stroke-width:1.789000e-02;stroke-miterlimit:10;}
	.st35{fill:#F4DF1F;stroke:#211316;stroke-width:1.936700e-02;stroke-miterlimit:10;}
	.st36{fill:#F4DF1F;stroke:#211316;stroke-width:1.908200e-02;stroke-miterlimit:10;}
	.st37{fill:#F4E12A;stroke:#211316;stroke-width:1.861300e-02;stroke-miterlimit:10;}
	.st38{fill:none;stroke:#211316;stroke-width:2.921000e-02;stroke-miterlimit:10;}
	.st39{fill:none;stroke:#211316;stroke-width:2.585300e-02;stroke-miterlimit:10;}
	.st40{fill:#F4DF1F;stroke:#211316;stroke-width:1.861300e-02;stroke-miterlimit:10;}
	.st41{fill:#F4E12A;stroke:#211316;stroke-width:2.529600e-02;stroke-miterlimit:10;}
	.st42{fill:#F4E12A;stroke:#211316;stroke-width:2.393400e-02;stroke-miterlimit:10;}
	.st43{fill:#F4E12A;stroke:#211316;stroke-width:2.357400e-02;stroke-miterlimit:10;}
	.st44{fill:#EE343A;stroke:#211316;stroke-width:3.722800e-02;stroke-miterlimit:10;}
	.st45{fill:#364A9F;}
	.st46{fill:#F4DF1F;stroke:#211316;stroke-width:1.861300e-02;stroke-linecap:round;stroke-miterlimit:10;}
	.st47{fill:none;stroke:#211316;stroke-width:1.861300e-02;stroke-miterlimit:10;}
	.st48{clip-path:url(#SVGID_00000029748438204290656740000000012009069609387191_);fill:#211316;}
	.st49{clip-path:url(#SVGID_00000029748438204290656740000000012009069609387191_);fill:#EFC333;}
	.st50{clip-path:url(#SVGID_00000029748438204290656740000000012009069609387191_);fill:#D82729;}
	.st51{clip-path:url(#SVGID_00000052071453360778908200000013632630523987854517_);fill:#EEECEA;}
	.st52{clip-path:url(#SVGID_00000052071453360778908200000013632630523987854517_);fill:#D9343D;}
	.st53{clip-path:url(#SVGID_00000052071453360778908200000013632630523987854517_);fill:#384891;}
	.st54{clip-path:url(#SVGID_00000181044728420781932600000012593134998425748121_);fill:#FFFFFF;}
	.st55{clip-path:url(#SVGID_00000181044728420781932600000012593134998425748121_);fill:#EE2F3A;}
	.st56{clip-path:url(#SVGID_00000181044728420781932600000012593134998425748121_);fill:#38419A;}
</style>
<g>
	<defs>
		<path id="SVGID_00000013882288932427723940000008581164668893995909_" d="M99.8,50c0,27.6-22.3,49.9-49.9,49.9
			C22.4,99.9,0.1,77.6,0.1,50C0.1,22.5,22.4,0.1,50,0.1C77.5,0.1,99.8,22.5,99.8,50L99.8,50z"/>
	</defs>
	<clipPath id="SVGID_00000089533755472336470210000017977124109516948887_">
		<use xlink:href="#SVGID_00000013882288932427723940000008581164668893995909_"  style="overflow:visible;"/>
	</clipPath>
	<path style="clip-path:url(#SVGID_00000089533755472336470210000017977124109516948887_);fill:#393989;" d="M99.8,0.1
		c0,6.5,0,99.8,0,99.8c-41.1,0-99.8,0-99.8,0c0-39.4,0-94.8,0-99.8H99.8L99.8,0.1z"/>
	<path style="clip-path:url(#SVGID_00000089533755472336470210000017977124109516948887_);fill:#FFFFFF;" d="M99.8,13.6
		c-0.8,0.1-1.5,0.1-1.5,0.1l0.4,3.1l-2.2-2.3l-2.2,2.3l0.4-3.1l-3.1-0.3l2.7-1.6l-1.7-2.7l2.9,1.1l1-3l1,3c0,0,1.4-0.5,2.3-0.9v0.7
		c-0.5,0.7-1.1,1.6-1.1,1.6s0.5,0.3,1.1,0.6V13.6z"/>
	<g style="clip-path:url(#SVGID_00000089533755472336470210000017977124109516948887_);">
		<path class="st4" d="M62.3-2.8c0,4.1,0,40.2,0,40.2H124v24.8H62.3v46.8H37.7V62.1c0,0-50.8,0-60.2,0V37.4c9.4,0,60.2,0,60.2,0
			s0-36.1,0-40.2H62.3L62.3-2.8z"/>
		<path class="st4" d="M-5.9,13.5c14.5,7.3,129.9,65,129.9,65v8.2h-16.6c0,0-115.5-57.7-129.9-64.9c0,0,0-6.2,0-8.3H-5.9L-5.9,13.5z
			"/>
		<path class="st4" d="M105.9,13.5C92.4,20.3-9.1,71-22.5,77.7v9c4.1,0,15,0,15,0L124,21.1c0,0,0-5.5,0-7.6H105.9L105.9,13.5z"/>
		<path class="st28" d="M57.4-2.8c0,4.6,0,45.2,0,45.2H124v14.8H57.4v51.8H42.5V57.1c0,0-55.3,0-65.1,0V42.4c9.8,0,65.1,0,65.1,0
			s0-40.6,0-45.2H57.4L57.4-2.8z"/>
		<path class="st28" d="M-22.5,13.5c8.2,4.1,47.8,23.9,47.8,23.9h-11c0,0-29.8-14.8-36.8-18.3C-22.5,19-22.5,13.8-22.5,13.5
			L-22.5,13.5L-22.5,13.5z"/>
		<path class="st28" d="M111.4,13.5c-8.2,4.1-47.8,23.9-47.8,23.9h11c0,0,39.5-19.7,47.8-23.9H111.4L111.4,13.5z"/>
		<path class="st28" d="M124,86.7L74.6,62.1h11L124,81.2V86.7L124,86.7z M-22.5,86.7c3,0,9.6,0,9.6,0l49.3-24.6h-11
			c0,0-39.6,19.8-47.9,23.9V86.7L-22.5,86.7z"/>
	</g>
</g>
</svg>
