<?xml version="1.0" encoding="utf-8"?>
<!-- Generator: Adobe Illustrator 25.4.1, SVG Export Plug-In . SVG Version: 6.00 Build 0)  -->
<svg version="1.1" id="Layer_1" xmlns="http://www.w3.org/2000/svg" xmlns:xlink="http://www.w3.org/1999/xlink" x="0px" y="0px"
	 viewBox="0 0 2500 2500" style="enable-background:new 0 0 2500 2500;" xml:space="preserve">
<style type="text/css">
	.st0{fill:#1E1E1E;}
	.st1{fill:#0ACF83;}
	.st2{fill:#A259FF;}
	.st3{fill:#F24E1E;}
	.st4{fill:#FF7262;}
	.st5{fill:#1ABCFE;}
</style>
<path class="st0" d="M2273.4,0H226.6C101.5,0,0,101.5,0,226.6v2046.7C0,2398.5,101.5,2500,226.6,2500h2046.7
	c125.2,0,226.6-101.5,226.6-226.6V226.6C2500,101.5,2398.5,0,2273.4,0"/>
<g>
	<path class="st1" d="M945.6,2163.1c168,0,304.4-136.4,304.4-304.4v-304.4H945.6c-168,0-304.4,136.4-304.4,304.4
		S777.6,2163.1,945.6,2163.1z"/>
	<path class="st2" d="M641.3,1250c0-168,136.4-304.4,304.4-304.4H1250v608.7H945.6C777.6,1554.4,641.3,1418,641.3,1250z"/>
	<path class="st3" d="M641.3,641.3c0-168,136.4-304.4,304.4-304.4H1250v608.7H945.6C777.6,945.6,641.3,809.3,641.3,641.3z"/>
	<path class="st4" d="M1250,336.9h304.4c168,0,304.4,136.4,304.4,304.4s-136.4,304.4-304.4,304.4H1250V336.9z"/>
	<path class="st5" d="M1858.7,1250c0,168-136.4,304.4-304.4,304.4S1250,1418,1250,1250s136.4-304.4,304.4-304.4
		S1858.7,1082,1858.7,1250z"/>
</g>
</svg>
