<svg width="276" height="210" viewBox="0 0 276 210" fill="none" xmlns="http://www.w3.org/2000/svg">
<g clip-path="url(#clip0_3076:2284)">
<path d="M38.9208 180.671C41.4998 181.578 44.2688 181.806 46.961 181.331C49.6533 180.856 52.178 179.695 54.292 177.959C59.6758 173.433 61.3638 165.977 62.7373 159.074L66.7997 138.654L58.2946 144.519C52.1782 148.737 45.9241 153.09 41.6891 159.199C37.4542 165.308 35.6056 173.648 39.0083 180.259" fill="#E6E6E6"/>
<path d="M39.6478 205.393C38.7869 199.113 37.9018 192.753 38.5056 186.406C39.0419 180.769 40.759 175.263 44.2549 170.749C46.1105 168.358 48.3685 166.309 50.9272 164.694C51.5944 164.272 52.2085 165.331 51.5442 165.751C47.1169 168.553 43.6925 172.691 41.7647 177.568C39.6356 182.992 39.2937 188.904 39.6606 194.665C39.8825 198.15 40.3527 201.611 40.8266 205.068C40.8639 205.224 40.8406 205.389 40.7614 205.528C40.6822 205.668 40.5529 205.773 40.3997 205.821C40.2434 205.863 40.0768 205.842 39.936 205.762C39.7953 205.682 39.6917 205.549 39.6478 205.393V205.393Z" fill="#F2F2F2"/>
<path d="M47.9391 194.281C49.0452 195.965 50.5656 197.335 52.3538 198.259C54.1421 199.183 56.1378 199.631 58.1489 199.558C63.3172 199.313 67.6259 195.7 71.5046 192.27L82.977 182.126L75.3842 181.762C69.9239 181.5 64.3228 181.256 59.122 182.943C53.9213 184.629 49.1249 188.687 48.1739 194.079" fill="#E6E6E6"/>
<path d="M37.215 209.003C41.3583 201.661 46.1642 193.501 54.7515 190.892C57.1392 190.17 59.6429 189.911 62.1276 190.13C62.9108 190.197 62.7152 191.406 61.9335 191.339C57.7685 190.992 53.6115 192.094 50.1624 194.458C46.8434 196.72 44.2591 199.866 42.0719 203.201C40.7321 205.245 39.532 207.375 38.3317 209.502C37.9481 210.181 36.8269 209.691 37.215 209.003V209.003Z" fill="#F2F2F2"/>
<path d="M116.364 83.6783C124.602 79.1436 134.856 80.0536 143.732 83.154C152.608 86.2544 160.652 91.3338 169.272 95.0907C195.613 106.571 227.36 104.72 252.192 90.2556C254.541 95.7267 252.021 101.985 249.254 107.256C246.486 112.527 243.332 118.239 244.471 124.084C245.929 131.564 253.759 136.048 256.932 142.975C259.944 149.55 258.327 157.272 256.017 164.126C253.706 170.98 250.708 177.885 251.1 185.109C251.493 192.332 256.733 199.97 263.956 199.976C253.252 201.642 242.336 203.309 231.638 201.601C220.94 199.894 210.298 194.228 205.331 184.586C202.848 179.767 201.891 174.226 199.04 169.616C194.183 161.764 184.863 158.071 176.068 155.288C167.274 152.505 157.863 149.824 151.671 142.979C145.771 136.456 143.903 127.37 140.777 119.145C135.513 105.376 126.369 93.4344 114.458 84.7704" fill="#14F1D9"/>
<path d="M106.605 204.648L101.821 203.208L105.089 184.041L112.15 186.166L106.605 204.648Z" fill="#FFB6B6"/>
<path d="M106.432 209.66L91.005 205.018L91.0636 204.823C91.3005 204.033 91.6904 203.298 92.211 202.659C92.7317 202.02 93.3728 201.49 94.0979 201.099C94.8231 200.709 95.6179 200.465 96.4371 200.382C97.2563 200.299 98.0838 200.378 98.8724 200.616L98.8727 200.616L108.295 203.451L106.432 209.66Z" fill="#2F2E41"/>
<path d="M151.755 204.81L146.759 204.81L144.382 185.511L151.756 185.512L151.755 204.81Z" fill="#FFB6B6"/>
<path d="M153.029 209.66L136.92 209.66V209.456C136.92 208.631 137.082 207.814 137.397 207.053C137.713 206.291 138.174 205.598 138.757 205.015C139.339 204.432 140.03 203.97 140.791 203.654C141.551 203.339 142.367 203.176 143.19 203.176H143.19L153.029 203.177L153.029 209.66Z" fill="#2F2E41"/>
<path d="M144.82 190.214C144.384 190.214 143.962 190.058 143.631 189.775C143.299 189.491 143.079 189.099 143.01 188.668L135.592 142.325C135.543 142.019 135.395 141.736 135.171 141.521C134.947 141.306 134.659 141.169 134.351 141.133C134.043 141.097 133.731 141.162 133.463 141.319C133.195 141.476 132.986 141.716 132.867 142.003L113.649 188.338C113.47 188.766 113.136 189.111 112.715 189.303C112.293 189.495 111.815 189.522 111.375 189.376L104.434 187.059C104.002 186.916 103.638 186.617 103.415 186.22C103.191 185.823 103.123 185.356 103.225 184.912L118.974 115.117C119.052 114.781 119.221 114.473 119.464 114.228C119.707 113.984 120.013 113.812 120.348 113.733L141.47 108.822C141.73 108.763 141.999 108.761 142.259 108.815C142.52 108.869 142.766 108.979 142.981 109.137C156.889 119.257 155.714 152.323 153.122 188.227C153.089 188.676 152.893 189.098 152.571 189.412C152.248 189.726 151.821 189.91 151.372 189.93L144.9 190.212C144.873 190.213 144.846 190.214 144.82 190.214Z" fill="#2F2E41"/>
<path d="M127.472 117.995C125.07 117.979 122.7 117.431 120.535 116.389L120.46 116.354L120.431 116.277L111.454 92.984L111.283 88.9368C111.226 87.5834 111.452 86.233 111.948 84.9725C112.443 83.712 113.197 82.5694 114.16 81.6183C115.123 80.6672 116.275 79.9286 117.54 79.4501C118.806 78.9717 120.157 78.7639 121.507 78.8402L131.038 79.3778C133.5 79.518 135.816 80.5925 137.514 82.3826C139.213 84.1727 140.166 86.5439 140.181 89.0134C140.428 89.4896 142.186 93.2136 138.741 96.7124C138.612 97.5091 137.407 105.792 141.955 110.346L142.083 110.474L141.971 110.616C141.899 110.709 136.058 117.993 127.472 117.995Z" fill="#E6E6E6"/>
<path d="M140.855 119.752C141.418 119.547 141.93 119.222 142.354 118.798C142.778 118.374 143.103 117.862 143.308 117.298C143.513 116.734 143.593 116.132 143.54 115.535C143.488 114.937 143.305 114.358 143.005 113.839L152.524 102.802L145.02 101.824L137.132 112.455C136.294 113.017 135.691 113.868 135.438 114.846C135.184 115.823 135.298 116.86 135.757 117.759C136.216 118.659 136.988 119.359 137.928 119.726C138.868 120.093 139.909 120.102 140.855 119.752V119.752Z" fill="#FFB6B6"/>
<path d="M146.806 111.233C146.449 111.233 146.099 111.128 145.8 110.931L141.092 107.839C140.697 107.58 140.416 107.178 140.31 106.716C140.204 106.255 140.28 105.77 140.522 105.364L143.931 99.6293C144.115 99.3191 144.232 98.9733 144.273 98.6146C144.315 98.256 144.28 97.8926 144.171 97.5484C144.063 97.2041 143.882 96.8868 143.643 96.6172C143.403 96.3477 143.109 96.132 142.78 95.9843L132.989 91.588C131.784 91.0405 130.802 90.0997 130.201 88.9197C129.6 87.7397 129.418 86.3905 129.683 85.0929V85.0929C129.866 84.2179 130.248 83.397 130.8 82.694C131.351 81.991 132.057 81.425 132.863 81.0398C133.668 80.6547 134.552 80.4608 135.444 80.4734C136.337 80.486 137.215 80.7046 138.009 81.1123L152.863 88.7352C153.865 89.2495 154.745 89.9746 155.441 90.8608C156.137 91.747 156.634 92.7735 156.897 93.8699C157.161 94.9663 157.184 96.1067 156.967 97.2131C156.749 98.3195 156.295 99.3657 155.636 100.28L148.293 110.47C148.123 110.707 147.9 110.899 147.642 111.032C147.383 111.164 147.097 111.233 146.806 111.233Z" fill="#E6E6E6"/>
<path d="M115.084 70.2977L116.646 76.642L140.04 77.3797L140.325 65.9095C140.551 56.8305 134.39 48.6891 125.193 48.3992C115.996 48.1092 109.825 55.4916 109.599 64.5705L110.43 76.4449L114.244 76.5652L115.084 70.2977Z" fill="#2F2E41"/>
<path d="M122.451 75.3143C116.805 73.8994 113.374 68.1703 114.787 62.518C116.201 56.8656 121.923 53.4305 127.569 54.8454C133.215 56.2603 136.646 61.9894 135.233 67.6418C133.82 73.2941 128.097 76.7292 122.451 75.3143Z" fill="#FFB6B6"/>
<path d="M116.639 63.5001L114.105 57.3626C114.151 56.2159 114.63 55.1248 115.437 54.3277C116.243 53.5306 117.312 53.0924 118.409 53.1088L133.715 53.3809C134.812 53.4036 135.845 53.8793 136.59 54.704C137.335 55.5287 137.73 56.6354 137.689 57.7823L137.688 57.823L135.088 63.8156L134.915 63.736C126.357 59.8035 123.651 59.7546 116.819 63.4057L116.639 63.5001Z" fill="#2F2E41"/>
<path d="M93.5163 36.8533C94.0436 37.1379 94.5022 37.535 94.8597 38.0163C95.2173 38.4977 95.4651 39.0518 95.5857 39.6394C95.7063 40.2271 95.6968 40.8341 95.5578 41.4177C95.4188 42.0013 95.1538 42.5472 94.7814 43.0171L102.589 55.3276L95.0225 55.1978L88.7687 43.5275C88.0219 42.8485 87.5498 41.9188 87.4417 40.9145C87.3337 39.9102 87.5972 38.9011 88.1824 38.0785C88.7676 37.2558 89.6338 36.6767 90.6169 36.4509C91.6 36.225 92.6316 36.3682 93.5163 36.8533V36.8533Z" fill="#FFB6B6"/>
<path d="M99.8091 45.6193L109.863 69.4126L120.405 87.3139C120.85 88.0696 121.118 88.9167 121.188 89.7911C121.258 90.6656 121.129 91.5447 120.81 92.3618C120.491 93.179 119.991 93.913 119.348 94.5084C118.705 95.1037 117.935 95.5448 117.096 95.7985C115.766 96.1938 114.339 96.0997 113.072 95.5332C111.805 94.9666 110.782 93.9651 110.189 92.7094L89.8718 49.2329C89.7615 48.9967 89.7026 48.7397 89.6991 48.4789C89.6957 48.2181 89.7477 47.9596 89.8518 47.7206C89.9558 47.4815 90.1096 47.2674 90.3027 47.0925C90.4958 46.9176 90.7239 46.7859 90.9718 46.7061L97.5594 44.5868C97.6842 44.5466 97.813 44.5196 97.9434 44.5063C98.3325 44.4669 98.7238 44.5539 99.0598 44.7543C99.3957 44.9547 99.6584 45.258 99.8091 45.6193Z" fill="#E6E6E6"/>
<path d="M192.468 210H18.2958C18.2347 210 18.1761 209.947 18.1329 209.853C18.0897 209.759 18.0655 209.631 18.0655 209.498C18.0655 209.364 18.0897 209.237 18.1329 209.142C18.1761 209.048 18.2347 208.995 18.2958 208.995H192.468C192.529 208.995 192.587 209.048 192.631 209.142C192.674 209.237 192.698 209.364 192.698 209.498C192.698 209.631 192.674 209.759 192.631 209.853C192.587 209.947 192.529 210 192.468 210Z" fill="#CCCCCC"/>
<path d="M140.573 -8.53226L136.224 24.648C136.21 24.7553 136.153 24.8527 136.068 24.9186C135.982 24.9845 135.874 25.0136 135.767 24.9996C135.659 24.9855 135.562 24.9294 135.496 24.8435C135.431 24.7577 135.401 24.6492 135.416 24.5419L139.765 -8.63842C139.779 -8.74574 139.835 -8.84306 139.921 -8.90899C140.006 -8.97492 140.115 -9.00406 140.222 -8.98998C140.329 -8.9759 140.426 -8.91977 140.492 -8.83393C140.558 -8.74809 140.587 -8.63958 140.573 -8.53226V-8.53226Z" fill="#E6E6E6"/>
<path d="M171.964 24.225L159.036 34.1686C158.95 34.2342 158.842 34.2631 158.735 34.2489C158.628 34.2348 158.531 34.1787 158.465 34.093C158.399 34.0072 158.37 33.8989 158.384 33.7917C158.398 33.6846 158.454 33.5873 158.539 33.5213L171.467 23.5777C171.51 23.5449 171.558 23.5209 171.61 23.5069C171.662 23.4928 171.716 23.4892 171.769 23.4961C171.822 23.5031 171.873 23.5204 171.92 23.5472C171.966 23.574 172.007 23.6097 172.039 23.6522C172.072 23.6948 172.096 23.7434 172.11 23.7952C172.124 23.8471 172.127 23.9012 172.12 23.9544C172.113 24.0076 172.096 24.0589 172.069 24.1053C172.042 24.1517 172.006 24.1924 171.964 24.225V24.225Z" fill="#E6E6E6"/>
<path d="M100.995 14.9015L110.922 27.8477C110.988 27.9335 111.085 27.9897 111.192 28.0037C111.3 28.0178 111.408 27.9887 111.494 27.9227C111.579 27.8568 111.635 27.7595 111.65 27.6522C111.664 27.5449 111.635 27.4363 111.569 27.3505L101.641 14.4043C101.609 14.3617 101.568 14.3259 101.522 14.299C101.475 14.2721 101.424 14.2546 101.371 14.2476C101.318 14.2405 101.264 14.2441 101.212 14.2579C101.16 14.2718 101.112 14.2958 101.069 14.3285C101.027 14.3612 100.991 14.402 100.964 14.4485C100.937 14.495 100.92 14.5463 100.913 14.5995C100.906 14.6528 100.91 14.7068 100.924 14.7586C100.938 14.8104 100.962 14.859 100.995 14.9015V14.9015Z" fill="#E6E6E6"/>
</g>
<defs>
<clipPath id="clip0_3076:2284">
<rect width="276" height="210" fill="white"/>
</clipPath>
</defs>
</svg>
