<svg width="299" height="20" viewBox="0 0 299 20" fill="none" xmlns="http://www.w3.org/2000/svg">
<path opacity="0.7" d="M121.548 3.77648H123.164L125.11 13.0494L126.963 3.77648H128.52L125.795 16.3581H124.293L121.548 3.77648ZM130.676 3.77648H132.361V16.3581H130.676V3.77648ZM135.109 3.77648H137.585C138.831 3.77648 139.745 4.04192 140.329 4.57279C140.909 5.09835 141.201 5.94641 141.201 7.12892C141.201 8.74541 140.695 9.72089 139.683 10.0673L141.427 16.37H139.772L138.165 10.4694H136.826V16.3581H135.109V3.77648ZM137.48 9.19931C138.048 9.24902 138.614 9.08163 139.068 8.72949C139.387 8.43087 139.543 7.88939 139.543 7.10105C139.558 6.687 139.503 6.27343 139.379 5.87872C139.27 5.59199 139.057 5.3595 138.784 5.22974C138.404 5.07083 137.995 4.99881 137.585 5.01872H136.826V9.19931H137.48ZM145.105 5.08242H143.015V3.77648H148.853V5.08242H146.833V16.3581H145.117L145.105 5.08242ZM151.944 15.9719C151.458 15.6099 151.107 15.0886 150.951 14.4947C150.75 13.7157 150.658 12.9113 150.679 12.1058V3.77648H152.318V12.1974C152.283 12.9371 152.394 13.6764 152.645 14.3713C152.785 14.5974 152.979 14.7835 153.209 14.9125C153.438 15.0415 153.696 15.1091 153.958 15.1091C154.22 15.1091 154.478 15.0415 154.708 14.9125C154.937 14.7835 155.131 14.5974 155.272 14.3713C155.522 13.6764 155.634 12.9371 155.599 12.1974V3.77648H157.222V12.1178C157.242 12.9232 157.151 13.7276 156.949 14.5067C156.795 15.0992 156.447 15.6201 155.965 15.9838C155.349 16.3313 154.657 16.5136 153.954 16.5136C153.251 16.5136 152.56 16.3313 151.944 15.9838V15.9719ZM161.737 3.77648H163.391L166.019 16.3581H164.392L163.831 13.1928H161.309L160.717 16.3581H159.11L161.737 3.77648ZM163.602 11.9346L162.57 6.26095L161.554 11.9346H163.602ZM168.019 3.77648H169.736V15.0999H172.881V16.3541H168.019V3.77648ZM179.564 15.4344C179.066 14.7018 178.825 13.6467 178.825 12.2292V8.0168C178.805 7.21007 178.903 6.40488 179.116 5.62789C179.286 5.04252 179.646 4.53395 180.136 4.18658C180.732 3.81708 181.422 3.64078 182.117 3.68093C183.251 3.68093 184.069 3.97556 184.57 4.56482C185.07 5.15409 185.321 6.08311 185.321 7.35188V7.81772H183.713V7.41957C183.725 6.95394 183.689 6.48835 183.608 6.03002C183.554 5.73519 183.392 5.47223 183.157 5.29344C182.854 5.1057 182.502 5.01811 182.149 5.04261C181.766 5.01182 181.386 5.13141 181.086 5.37705C180.845 5.61608 180.688 5.92945 180.638 6.26891C180.564 6.76285 180.532 7.26236 180.541 7.76198V12.4204C180.492 13.1295 180.608 13.8403 180.88 14.4947C181.109 14.9168 181.545 15.1238 182.195 15.1238C182.454 15.149 182.714 15.0974 182.944 14.9752C183.175 14.8531 183.366 14.6655 183.495 14.435C183.777 13.7413 183.899 12.9908 183.853 12.2412V11.3732H182.297V10.131H185.41V16.3581H184.332L184.165 14.9168C184.029 15.3957 183.739 15.8138 183.342 16.1029C182.945 16.3921 182.464 16.5353 181.977 16.5094C180.864 16.512 180.06 16.1537 179.564 15.4344ZM187.929 3.77648H190.404C191.65 3.77648 192.565 4.04192 193.148 4.57279C193.728 5.0864 194.005 5.94243 194.005 7.13688C194.005 8.75338 193.499 9.72885 192.487 10.0752L194.234 16.378H192.576L190.969 10.4774H189.645V16.3581H187.929V3.77648ZM190.299 9.19931C190.867 9.24902 191.433 9.08163 191.887 8.72949C192.206 8.43087 192.366 7.88939 192.366 7.10105C192.382 6.68666 192.325 6.27273 192.199 5.87872C192.09 5.59271 191.878 5.36032 191.607 5.22974C191.226 5.07125 190.815 4.99925 190.404 5.01872H189.645V9.19931H190.299ZM198.516 3.77648H200.17L202.801 16.3581H201.174L200.622 13.1928H198.115L197.508 16.3581H195.896L198.516 3.77648ZM200.384 11.9346L199.353 6.26095L198.333 11.9346H200.384ZM204.802 3.77648H207.858C208.922 3.77648 209.694 4.07112 210.174 4.66038C210.654 5.24964 210.894 6.11496 210.894 7.25633C210.944 8.12541 210.665 8.981 210.115 9.64524C209.822 9.94258 209.469 10.1727 209.082 10.3202C208.695 10.4678 208.282 10.5295 207.869 10.5013H206.515V16.3541H204.798L204.802 3.77648ZM207.309 9.2431C207.705 9.25893 208.101 9.20091 208.477 9.0719C208.61 9.02054 208.733 8.94179 208.836 8.84048C208.939 8.73916 209.02 8.61739 209.076 8.48263C209.213 8.10069 209.275 7.69477 209.259 7.28818C209.276 6.8129 209.23 6.3374 209.123 5.87474C209.084 5.7345 209.015 5.60475 208.921 5.49467C208.828 5.38459 208.712 5.29686 208.582 5.2377C208.175 5.09089 207.744 5.02731 207.313 5.05057H206.507V9.2431H207.309ZM212.852 3.77648H214.568V9.21523H217.748V3.77648H219.465V16.3581H217.748V10.4734H214.588V16.3581H212.871L212.852 3.77648ZM222.224 3.77648H223.91V16.3581H222.224V3.77648ZM227.175 15.3906C226.677 14.65 226.432 13.6268 226.432 12.3208V7.87744C226.432 6.49984 226.673 5.45668 227.16 4.74001C227.646 4.02334 228.507 3.66898 229.74 3.66898C230.846 3.66898 231.636 3.97158 232.119 4.58473C232.601 5.19788 232.839 6.09771 232.839 7.28818V8.27958H231.216V7.39568C231.224 6.94969 231.198 6.50373 231.138 6.06187C231.098 5.77329 230.96 5.50823 230.749 5.31335C230.459 5.10226 230.106 5.00345 229.752 5.03464C229.382 5.00537 229.013 5.1127 228.713 5.33724C228.472 5.55576 228.311 5.85227 228.257 6.17734C228.177 6.6518 228.14 7.1331 228.148 7.61466V12.5995C228.134 13.1072 228.185 13.6146 228.3 14.1085C228.368 14.42 228.543 14.6958 228.795 14.8849C229.082 15.0549 229.413 15.1352 229.744 15.1158C230.093 15.1451 230.44 15.04 230.717 14.8212C230.932 14.6084 231.069 14.3277 231.107 14.0249C231.17 13.562 231.199 13.0948 231.192 12.6274V11.6838H232.815V12.6154C232.815 13.871 232.586 14.8318 232.126 15.4981C231.667 16.1643 230.864 16.4987 229.717 16.5014C228.518 16.5014 227.671 16.1311 227.175 15.3906ZM239.475 3.77648H242.149C243.478 3.77648 244.417 4.08704 244.967 4.70816C245.517 5.32928 245.794 6.29811 245.796 7.61466V12.2412C245.796 13.6307 245.524 14.6619 244.983 15.3428C244.442 16.0236 243.543 16.3581 242.286 16.3581H239.475V3.77648ZM242.165 15.0999C242.626 15.1407 243.086 15.0138 243.465 14.7416C243.741 14.4905 243.918 14.1451 243.963 13.7701C244.043 13.1538 244.076 12.5322 244.064 11.9107V7.82967C244.077 7.28114 244.033 6.73278 243.936 6.19326C243.871 5.85107 243.677 5.549 243.395 5.35316C243.002 5.1448 242.56 5.05114 242.118 5.08242H241.192V15.0999H242.165ZM248.237 3.7725H253.009V5.07844H249.953V9.2431H252.429V10.4853H249.953V15.0999H253.04V16.3541H248.237V3.7725ZM255.718 15.518C255.137 14.748 254.819 13.8035 254.815 12.8304L256.333 12.4084C256.352 13.0873 256.51 13.7546 256.796 14.3673C256.915 14.6065 257.101 14.8047 257.329 14.937C257.557 15.0694 257.819 15.1302 258.081 15.1119C258.267 15.1223 258.454 15.0923 258.628 15.0237C258.803 14.955 258.961 14.8494 259.093 14.7137C259.335 14.4045 259.456 14.0141 259.431 13.6188C259.449 13.1663 259.338 12.7183 259.112 12.3288C258.827 11.9037 258.485 11.5217 258.096 11.194L256.029 9.3307C255.648 9.00371 255.34 8.59626 255.126 8.13624C254.924 7.63147 254.829 7.08877 254.846 6.54364C254.823 6.15081 254.88 5.75732 255.014 5.38842C255.148 5.01953 255.356 4.68339 255.625 4.40158C256.239 3.90327 257.002 3.63477 257.787 3.64056C258.571 3.64636 259.33 3.9261 259.937 4.43343C260.436 4.95899 260.716 5.77919 260.833 6.88605L259.377 7.2842C259.363 6.69123 259.219 6.10902 258.957 5.58011C258.827 5.37463 258.644 5.21001 258.428 5.10457C258.212 4.99913 257.972 4.95701 257.734 4.98288C257.553 4.97103 257.372 4.99589 257.2 5.05601C257.028 5.11614 256.87 5.21036 256.734 5.33326C256.61 5.47179 256.515 5.63467 256.455 5.81197C256.395 5.98926 256.371 6.17726 256.384 6.36447C256.374 6.68909 256.437 7.01168 256.567 7.30809C256.722 7.60438 256.933 7.86572 257.189 8.07652L259.268 9.93987C259.779 10.3951 260.213 10.9331 260.552 11.5325C260.882 12.135 261.046 12.8173 261.027 13.5073C261.048 13.9108 260.985 14.3141 260.843 14.6913C260.702 15.0684 260.485 15.4111 260.206 15.6971C259.572 16.247 258.76 16.5343 257.93 16.5026C257.099 16.4709 256.31 16.1225 255.718 15.5259V15.518ZM263.215 3.7725H264.9V16.3541H263.215V3.7725ZM268.162 15.4304C267.669 14.7084 267.421 13.64 267.418 12.2253V8.0168C267.4 7.20986 267.5 6.40464 267.714 5.62789C267.882 5.03755 268.244 4.52436 268.738 4.17464C269.333 3.80514 270.024 3.62884 270.719 3.66898C271.851 3.66898 272.668 3.96361 273.171 4.55288C273.675 5.14214 273.925 6.07116 273.923 7.33994V7.80578H272.315V7.40763C272.327 6.94179 272.291 6.47596 272.206 6.01808C272.156 5.72238 271.996 5.4582 271.758 5.2815C271.456 5.09376 271.104 5.00616 270.75 5.03066C270.366 4.99925 269.985 5.11885 269.684 5.36511C269.446 5.60619 269.289 5.91858 269.236 6.25697C269.164 6.75113 269.132 7.25047 269.139 7.75004V12.4084C269.091 13.1178 269.208 13.8288 269.481 14.4828C269.711 14.9048 270.147 15.1119 270.797 15.1119C271.057 15.1397 271.318 15.0902 271.551 14.9694C271.784 14.8487 271.977 14.6617 272.109 14.431C272.39 13.7373 272.513 12.9869 272.467 12.2372V11.3732H270.91V10.131H274.024V16.3581H272.946L272.778 14.9168C272.643 15.3957 272.353 15.8138 271.956 16.1029C271.559 16.3921 271.078 16.5353 270.591 16.5094C269.462 16.5134 268.66 16.155 268.162 15.4344V15.4304ZM276.523 3.77648H277.69L281.194 12.1377V3.77648H282.622V16.3581H281.528L277.99 7.76994V16.3581H276.523V3.77648ZM285.3 3.77648H290.072V5.08242H287.032V9.2431H289.508V10.4853H287.032V15.0999H290.119V16.3541H285.308L285.3 3.77648ZM292.244 3.77648H294.72C295.965 3.77648 296.876 4.03926 297.444 4.57279C298.012 5.10631 298.339 5.94243 298.339 7.13688C298.339 8.75338 297.833 9.72885 296.821 10.0752L298.569 16.378H296.915L295.303 10.4774H293.968V16.3581H292.252L292.244 3.77648ZM294.614 9.19931C295.184 9.25041 295.751 9.08293 296.206 8.72949C296.526 8.43087 296.685 7.88939 296.685 7.10105C296.701 6.68666 296.644 6.27273 296.518 5.87872C296.409 5.59271 296.197 5.36032 295.926 5.22974C295.546 5.07157 295.137 4.99958 294.727 5.01872H293.968V9.19931H294.614ZM105.119 0.567383C100.896 0.567383 97.4742 4.2901 97.4742 8.24374C97.4742 12.6553 105.119 19.6189 105.119 19.6189C105.119 19.6189 112.763 12.711 112.763 8.24374C112.763 4.2901 109.342 0.567383 105.119 0.567383ZM105.154 13.2326C104.192 13.2326 103.252 12.9409 102.453 12.3945C101.653 11.8481 101.03 11.0714 100.662 10.1627C100.294 9.25404 100.198 8.25415 100.386 7.2895C100.573 6.32485 101.036 5.43876 101.716 4.74329C102.396 4.04782 103.262 3.57419 104.205 3.38231C105.148 3.19043 106.126 3.28891 107.014 3.6653C107.903 4.04169 108.662 4.67908 109.196 5.49687C109.73 6.31466 110.015 7.27612 110.015 8.25967C110.015 9.57857 109.503 10.8434 108.591 11.776C107.68 12.7087 106.443 13.2326 105.154 13.2326V13.2326ZM1.33296 15.5299C0.751424 14.7599 0.434059 13.8154 0.429932 12.8424L1.94795 12.4204C1.96734 13.0992 2.1251 13.7664 2.41114 14.3793C2.53033 14.6185 2.71563 14.8166 2.944 14.949C3.17237 15.0814 3.43374 15.1421 3.69562 15.1238C3.88169 15.1347 4.0679 15.1049 4.24176 15.0362C4.41563 14.9675 4.57314 14.8617 4.70374 14.7256C4.94995 14.4185 5.07244 14.027 5.04627 13.6307C5.0641 13.1782 4.95323 12.7301 4.7271 12.3407C4.44213 11.9156 4.10015 11.5337 3.71119 11.206L1.64046 9.36255C1.2586 9.03582 0.950523 8.62832 0.737428 8.16809C0.535453 7.66332 0.439954 7.12062 0.457178 6.57549C0.433793 6.18266 0.490968 5.78917 0.625031 5.42028C0.759095 5.05139 0.967085 4.71524 1.23565 4.43343C1.52068 4.1703 1.8539 3.9676 2.21602 3.83707C2.57814 3.70653 2.96197 3.65075 3.34531 3.67296C3.74636 3.64311 4.14911 3.69844 4.52825 3.83548C4.90738 3.97251 5.25471 4.1883 5.54838 4.46927C6.04271 4.99483 6.32685 5.81502 6.44363 6.92188L4.98399 7.32003C4.96973 6.7296 4.82608 6.14997 4.56362 5.62391C4.43387 5.41843 4.25092 5.25381 4.03514 5.14837C3.81936 5.04293 3.57921 5.0008 3.34142 5.02668C3.15966 5.01385 2.97723 5.03823 2.8048 5.09839C2.63237 5.15855 2.4734 5.25329 2.33719 5.37705C2.21445 5.51617 2.12049 5.67923 2.06096 5.85645C2.00143 6.03366 1.97755 6.22137 1.99077 6.40826C1.98183 6.73285 2.04435 7.05535 2.17371 7.35188C2.32879 7.64818 2.54059 7.90951 2.79649 8.12032L4.87501 9.98367C5.38568 10.4389 5.81964 10.9769 6.15948 11.5763C6.48279 12.1655 6.64796 12.8317 6.63824 13.5073C6.65806 13.9107 6.59524 14.3139 6.45381 14.691C6.31238 15.0681 6.09545 15.4108 5.81696 15.6971C5.532 15.9673 5.19737 16.1769 4.83252 16.3136C4.46767 16.4503 4.07989 16.5114 3.69173 16.4934C3.253 16.525 2.81298 16.4547 2.40453 16.2878C1.99609 16.121 1.62978 15.8619 1.33296 15.5299V15.5299ZM10.6746 3.78445H12.3289L14.9562 16.366H13.3331L12.7726 13.1808H10.2854L9.69375 16.366H8.06674L10.6746 3.78445ZM12.543 11.9426L11.5115 6.26891L10.4956 11.9426H12.543ZM16.9647 3.78445H18.1324L21.6355 12.1456V3.78445H23.064V16.366H21.9625L18.4204 7.77791V16.366H16.9647V3.78445ZM25.7419 3.78445H26.9096L30.4128 12.1456V3.78445H31.8413V16.366H30.7397L27.2016 7.77791V16.366H25.7419V3.78445ZM34.5192 3.78445H39.2912V5.09038H36.2357V9.25107H38.6996V10.4933H36.2357V15.0999H39.3185V16.3541H34.5192V3.78445ZM45.6981 3.78445H48.7497C49.8123 3.78445 50.5869 4.07908 51.0851 4.66834C51.5833 5.25761 51.8091 6.12558 51.8091 7.26429C51.858 8.13316 51.5794 8.98815 51.0306 9.6532C50.7362 9.95064 50.3834 10.1808 49.9956 10.3283C49.6077 10.4759 49.1937 10.5376 48.7808 10.5092H47.4302V16.3621H45.7058L45.6981 3.78445ZM48.2047 9.25107C48.601 9.26779 48.9968 9.20975 49.3725 9.07986C49.5095 9.03101 49.635 8.95334 49.741 8.85185C49.8469 8.75036 49.9308 8.6273 49.9874 8.4906C50.1247 8.10866 50.1869 7.70273 50.1704 7.29614C50.19 6.82079 50.1441 6.34498 50.0342 5.8827C49.997 5.74213 49.9295 5.61189 49.8365 5.50163C49.7435 5.39136 49.6275 5.30388 49.497 5.24566C49.0901 5.09885 48.659 5.03527 48.2281 5.05853H47.4224V9.25107H48.2047ZM53.7475 3.78445H58.5156V5.09038H55.464V9.25107H57.9395V10.4933H55.464V15.0999H58.5506V16.3541H53.7475V3.78445ZM62.0538 5.09038H59.9752V3.78445H65.7904V5.09038H63.7703V16.366H62.0538V5.09038ZM67.7327 3.78445H72.5047V5.09038H69.4492V9.25107H71.9248V10.4933H69.4492V15.0999H72.532V16.3541H67.7171L67.7327 3.78445ZM74.6767 3.78445H77.1483C78.3978 3.78445 79.3086 4.04723 79.873 4.58075C80.4374 5.11427 80.7371 5.94243 80.7371 7.13688C80.7371 8.75338 80.2311 9.72885 79.2191 10.0713L80.9667 16.378H79.3125L77.701 10.4774H76.3621V16.366H74.6494L74.6767 3.78445ZM77.0432 9.20727C77.6092 9.26152 78.1748 9.09987 78.6313 8.75338C78.9505 8.45476 79.1101 7.9093 79.1101 7.12494C79.1238 6.71066 79.0672 6.29709 78.9427 5.90261C78.8368 5.61501 78.6242 5.38179 78.3511 5.25363C77.9703 5.09314 77.5596 5.02106 77.1483 5.04261H76.3699V9.20727H77.0432ZM83.851 15.5299C83.2694 14.7599 82.9521 13.8154 82.9479 12.8424L84.466 12.4204C84.4854 13.0992 84.6431 13.7664 84.9292 14.3793C85.0483 14.6185 85.2336 14.8166 85.462 14.949C85.6904 15.0814 85.9518 15.1421 86.2136 15.1238C86.3997 15.1347 86.5859 15.1049 86.7598 15.0362C86.9336 14.9675 87.0912 14.8617 87.2218 14.7256C87.468 14.4185 87.5905 14.027 87.5643 13.6307C87.5821 13.1782 87.4712 12.7301 87.2451 12.3407C86.959 11.9166 86.6171 11.5347 86.2292 11.206L84.1624 9.34264C83.7805 9.01591 83.4724 8.60841 83.2593 8.14819C83.0574 7.64342 82.9619 7.10071 82.9791 6.55558C82.9557 6.16275 83.0129 5.76926 83.1469 5.40037C83.281 5.03148 83.489 4.69534 83.7576 4.41353C84.3723 3.91522 85.1351 3.64672 85.9194 3.65251C86.7038 3.6583 87.4626 3.93804 88.0703 4.44538C88.5646 4.97094 88.8488 5.79113 88.9655 6.89799L87.5098 7.29614C87.4949 6.70453 87.3513 6.12374 87.0894 5.59604C86.9597 5.39056 86.7767 5.22594 86.5609 5.1205C86.3452 5.01506 86.105 4.97293 85.8672 4.99881C85.6846 4.97636 85.4993 4.99664 85.3255 5.05813C85.1516 5.11962 84.9937 5.22071 84.8636 5.35377C84.7335 5.48683 84.6347 5.64839 84.5746 5.82623C84.5144 6.00407 84.4946 6.19356 84.5166 6.38039C84.5057 6.70515 84.5683 7.02808 84.6995 7.32401C84.8546 7.62031 85.0664 7.88164 85.3223 8.09245L87.4008 9.9558C87.9115 10.411 88.3454 10.949 88.6853 11.5484C89.0079 12.1474 89.1678 12.8237 89.1485 13.5073C89.1673 13.9106 89.1041 14.3135 88.9627 14.6905C88.8213 15.0674 88.6049 15.4102 88.3272 15.6971C87.6938 16.2424 86.8848 16.5272 86.0576 16.4963C85.2303 16.4654 84.4438 16.121 83.851 15.5299Z" fill="#272142"/>
</svg>
