<svg width="21" height="19" viewBox="0 0 21 19" fill="none" xmlns="http://www.w3.org/2000/svg">
<path opacity="0.7" d="M27.1185 3.12685H28.7339L30.68 12.1621L32.5328 3.12685H34.0898L31.3651 15.386H29.8626L27.1185 3.12685ZM36.2461 3.12685H37.9315V15.386H36.2461V3.12685ZM40.6795 3.12685H43.155C44.4006 3.12685 45.3153 3.38548 45.8992 3.90274C46.4791 4.41483 46.7711 5.24116 46.7711 6.39336C46.7711 7.96842 46.265 8.91889 45.253 9.25641L46.9968 15.3976H45.3426L43.735 9.64823H42.396V15.386H40.6795V3.12685ZM43.05 8.41068C43.6179 8.45912 44.1837 8.29602 44.638 7.95291C44.9572 7.66195 45.1129 7.13434 45.1129 6.3662C45.1279 5.96277 45.0726 5.5598 44.9494 5.17521C44.8401 4.89582 44.6267 4.66929 44.3539 4.54285C43.9741 4.38802 43.5649 4.31785 43.155 4.33724H42.396V8.41068H43.05ZM50.6751 4.39931H48.5849V3.12685H54.4234V4.39931H52.4033V15.386H50.6868L50.6751 4.39931ZM57.514 15.0097C57.0278 14.657 56.6776 14.1491 56.5214 13.5704C56.3203 12.8113 56.2285 12.0275 56.2489 11.2427V3.12685H57.8876V11.3319C57.8529 12.0527 57.9641 12.7731 58.2146 13.4501C58.3552 13.6704 58.5493 13.8518 58.7789 13.9775C59.0086 14.1031 59.2663 14.169 59.5283 14.169C59.7902 14.169 60.048 14.1031 60.2776 13.9775C60.5072 13.8518 60.7013 13.6704 60.8419 13.4501C61.0924 12.7731 61.2036 12.0527 61.1689 11.3319V3.12685H62.792V11.2543C62.8124 12.0392 62.7207 12.8229 62.5195 13.582C62.3648 14.1593 62.0175 14.667 61.5348 15.0213C60.9192 15.3599 60.2275 15.5375 59.5244 15.5375C58.8212 15.5375 58.1296 15.3599 57.514 15.0213V15.0097ZM67.3071 3.12685H68.9614L71.5887 15.386H69.9617L69.4012 12.3018H66.879L66.2873 15.386H64.6798L67.3071 3.12685ZM69.1716 11.0759L68.1401 5.54764L67.1242 11.0759H69.1716ZM73.5894 3.12685H75.3059V14.1601H78.451V15.3821H73.5894V3.12685ZM85.1341 14.4859C84.6359 13.7721 84.3946 12.744 84.3946 11.363V7.25848C84.3751 6.47243 84.4735 5.68788 84.6865 4.9308C84.8558 4.36044 85.2156 3.8649 85.7063 3.52643C86.3016 3.16641 86.9923 2.99463 87.6875 3.03374C88.8215 3.03374 89.6389 3.32082 90.1397 3.89498C90.6405 4.46915 90.8909 5.37435 90.8909 6.61061V7.06451H89.2834V6.67656C89.2946 6.22286 89.2594 5.76921 89.1783 5.32263C89.1236 5.03536 88.9624 4.77914 88.7268 4.60493C88.424 4.422 88.0719 4.33665 87.7187 4.36052C87.3358 4.33052 86.9558 4.44705 86.6561 4.6864C86.4153 4.91929 86.258 5.22464 86.2084 5.5554C86.1344 6.03667 86.1019 6.52338 86.1111 7.0102V11.5492C86.0624 12.2401 86.1784 12.9327 86.4498 13.5704C86.6794 13.9816 87.1154 14.1833 87.7654 14.1833C88.0239 14.2078 88.284 14.1576 88.5146 14.0386C88.7451 13.9195 88.9364 13.7368 89.0654 13.5122C89.347 12.8363 89.4695 12.105 89.4235 11.3746V10.5289H87.8666V9.31848H90.9805V15.386H89.9023L89.7349 13.9816C89.5994 14.4483 89.3096 14.8556 88.9124 15.1374C88.5153 15.4191 88.0342 15.5587 87.5474 15.5334C86.4342 15.536 85.6298 15.1868 85.1341 14.4859ZM93.4988 3.12685H95.9744C97.2199 3.12685 98.1346 3.38548 98.7185 3.90274C99.2984 4.40319 99.5748 5.23728 99.5748 6.40112C99.5748 7.97618 99.0688 8.92665 98.0568 9.26417L99.8044 15.4054H98.1463L96.5388 9.65599H95.2153V15.386H93.4988V3.12685ZM95.8693 8.41068C96.4372 8.45912 97.003 8.29602 97.4573 7.95291C97.7765 7.66195 97.9361 7.13434 97.9361 6.3662C97.9519 5.96244 97.8952 5.55911 97.7687 5.17521C97.6603 4.89652 97.4485 4.6701 97.1771 4.54285C96.7958 4.38843 96.3855 4.31828 95.9744 4.33724H95.2153V8.41068H95.8693ZM104.086 3.12685H105.74L108.372 15.386H106.745L106.192 12.3018H103.685L103.078 15.386H101.466L104.086 3.12685ZM105.954 11.0759L104.923 5.54764L103.903 11.0759H105.954ZM110.372 3.12685H113.428C114.492 3.12685 115.264 3.41393 115.744 3.98809C116.224 4.56225 116.464 5.40539 116.464 6.5175C116.514 7.36431 116.236 8.19797 115.685 8.84518C115.392 9.1349 115.039 9.35909 114.652 9.50289C114.265 9.64669 113.852 9.70681 113.439 9.67927H112.085V15.3821H110.368L110.372 3.12685ZM112.879 8.45336C113.275 8.46877 113.671 8.41225 114.047 8.28654C114.18 8.2365 114.303 8.15977 114.406 8.06105C114.509 7.96232 114.591 7.84368 114.646 7.71238C114.783 7.34023 114.845 6.94471 114.829 6.54854C114.846 6.08544 114.8 5.62213 114.693 5.17133C114.654 5.03468 114.585 4.90826 114.491 4.801C114.398 4.69374 114.282 4.60826 114.152 4.55061C113.745 4.40757 113.314 4.34561 112.883 4.36828H112.077V8.45336H112.879ZM118.422 3.12685H120.138V8.4262H123.318V3.12685H125.035V15.386H123.318V9.65211H120.158V15.386H118.441L118.422 3.12685ZM127.794 3.12685H129.48V15.386H127.794V3.12685ZM132.745 14.4433C132.247 13.7217 132.002 12.7246 132.002 11.4522V7.1227C132.002 5.7804 132.243 4.76398 132.73 4.06568C133.216 3.36738 134.077 3.0221 135.311 3.0221C136.416 3.0221 137.206 3.31694 137.689 3.91438C138.171 4.51182 138.409 5.38858 138.409 6.54854V7.51453H136.786V6.65328C136.794 6.21872 136.768 5.7842 136.708 5.35366C136.668 5.07247 136.53 4.81421 136.319 4.62432C136.029 4.41864 135.676 4.32237 135.322 4.35276C134.952 4.32424 134.583 4.42882 134.283 4.6476C134.042 4.86053 133.881 5.14944 133.828 5.46617C133.747 5.92847 133.71 6.39743 133.719 6.86666V11.7237C133.704 12.2184 133.755 12.7128 133.87 13.1941C133.938 13.4976 134.113 13.7663 134.365 13.9506C134.653 14.1162 134.983 14.1944 135.314 14.1756C135.663 14.204 136.01 14.1017 136.288 13.8885C136.502 13.6812 136.639 13.4077 136.677 13.1126C136.741 12.6616 136.769 12.2063 136.762 11.7509V10.8315H138.386V11.7393C138.386 12.9626 138.156 13.8988 137.697 14.548C137.237 15.1972 136.434 15.523 135.287 15.5256C134.088 15.5256 133.241 15.1648 132.745 14.4433ZM145.045 3.12685H147.719C149.048 3.12685 149.987 3.42945 150.537 4.03465C151.088 4.63984 151.364 5.58385 151.367 6.86666V11.3746C151.367 12.7285 151.094 13.7333 150.553 14.3967C150.012 15.0601 149.113 15.386 147.856 15.386H145.045V3.12685ZM147.735 14.1601C148.196 14.1998 148.656 14.0762 149.035 13.8109C149.311 13.5663 149.488 13.2297 149.533 12.8643C149.613 12.2638 149.647 11.6582 149.634 11.0526V7.07615C149.647 6.54168 149.604 6.00738 149.506 5.48169C149.441 5.14826 149.247 4.85393 148.965 4.66312C148.572 4.4601 148.13 4.36883 147.688 4.39931H146.762V14.1601H147.735ZM153.807 3.12297H158.579V4.39544H155.524V8.45336H157.999V9.66375H155.524V14.1601H158.61V15.3821H153.807V3.12297ZM161.288 14.5674C160.707 13.8171 160.389 12.8968 160.385 11.9488L161.903 11.5375C161.922 12.199 162.08 12.8492 162.366 13.4462C162.486 13.6793 162.671 13.8724 162.899 14.0013C163.128 14.1303 163.389 14.1896 163.651 14.1717C163.837 14.1819 164.024 14.1526 164.198 14.0858C164.373 14.0189 164.531 13.916 164.663 13.7837C164.905 13.4825 165.026 13.1021 165.001 12.7169C165.019 12.276 164.908 11.8395 164.682 11.4599C164.397 11.0458 164.055 10.6736 163.666 10.3543L161.6 8.5387C161.218 8.22009 160.91 7.8231 160.697 7.37486C160.495 6.88303 160.399 6.35424 160.416 5.82308C160.393 5.44032 160.45 5.05691 160.584 4.69748C160.718 4.33804 160.926 4.01051 161.195 3.73593C161.809 3.25039 162.572 2.98877 163.357 2.99441C164.141 3.00006 164.9 3.27263 165.507 3.76696C166.006 4.27905 166.286 5.07822 166.403 6.15671L164.947 6.54466C164.933 5.96689 164.789 5.3996 164.527 4.88425C164.397 4.68404 164.214 4.52364 163.998 4.4209C163.782 4.31816 163.542 4.27712 163.304 4.30233C163.123 4.29078 162.942 4.315 162.77 4.37358C162.598 4.43217 162.44 4.52397 162.304 4.64372C162.18 4.7787 162.085 4.93741 162.025 5.11016C161.965 5.28292 161.941 5.46609 161.954 5.6485C161.944 5.96481 162.007 6.27912 162.137 6.56794C162.292 6.85664 162.504 7.11127 162.759 7.31667L164.838 9.13226C165.349 9.57579 165.783 10.1001 166.122 10.684C166.452 11.2711 166.616 11.9359 166.597 12.6083C166.618 13.0014 166.555 13.3944 166.414 13.7619C166.272 14.1294 166.055 14.4633 165.776 14.742C165.142 15.2777 164.33 15.5577 163.5 15.5268C162.669 15.4959 161.88 15.1565 161.288 14.5752V14.5674ZM168.785 3.12297H170.47V15.3821H168.785V3.12297ZM173.732 14.482C173.239 13.7786 172.991 12.7376 172.989 11.3591V7.25848C172.97 6.47222 173.07 5.68764 173.284 4.9308C173.452 4.35559 173.814 3.85556 174.308 3.5148C174.903 3.15477 175.594 2.98299 176.289 3.0221C177.421 3.0221 178.238 3.30918 178.741 3.88334C179.245 4.45751 179.495 5.36271 179.493 6.59897V7.05287H177.885V6.66492C177.897 6.21103 177.861 5.75713 177.776 5.31099C177.726 5.02287 177.566 4.76546 177.329 4.59329C177.026 4.41036 176.674 4.32501 176.32 4.34888C175.936 4.31827 175.555 4.43481 175.254 4.67476C175.016 4.90966 174.859 5.21405 174.806 5.54376C174.734 6.02526 174.702 6.5118 174.709 6.99856V11.5375C174.661 12.2288 174.779 12.9215 175.052 13.5587C175.281 13.97 175.717 14.1717 176.367 14.1717C176.627 14.1988 176.889 14.1506 177.121 14.0329C177.354 13.9152 177.548 13.7331 177.679 13.5083C177.96 12.8324 178.083 12.1012 178.037 11.3707V10.5289H176.48V9.31848H179.594V15.386H178.516L178.348 13.9816C178.213 14.4483 177.923 14.8556 177.526 15.1374C177.129 15.4191 176.648 15.5587 176.161 15.5334C175.032 15.5373 174.23 15.1881 173.732 14.4859V14.482ZM182.093 3.12685H183.261L186.764 11.2737V3.12685H188.192V15.386H187.098L183.56 7.01795V15.386H182.093V3.12685ZM190.87 3.12685H195.642V4.39931H192.602V8.45336H195.078V9.66375H192.602V14.1601H195.689V15.3821H190.878L190.87 3.12685ZM197.814 3.12685H200.29C201.535 3.12685 202.446 3.38289 203.014 3.90274C203.583 4.42259 203.909 5.23728 203.909 6.40112C203.909 7.97618 203.403 8.92665 202.391 9.26417L204.139 15.4054H202.485L200.873 9.65599H199.538V15.386H197.822L197.814 3.12685ZM200.184 8.41068C200.754 8.46048 201.321 8.29729 201.776 7.95291C202.096 7.66195 202.255 7.13434 202.255 6.3662C202.271 5.96244 202.214 5.55911 202.088 5.17521C201.979 4.89652 201.768 4.6701 201.496 4.54285C201.116 4.38874 200.707 4.3186 200.297 4.33724H199.538V8.41068H200.184ZM10.6889 0C6.46568 0 3.04429 3.6273 3.04429 7.47961C3.04429 11.7781 10.6889 18.5632 10.6889 18.5632C10.6889 18.5632 18.3335 11.8324 18.3335 7.47961C18.3335 3.6273 14.9121 0 10.6889 0ZM10.7239 12.3406C9.7624 12.3406 8.82246 12.0564 8.02298 11.524C7.2235 10.9916 6.60038 10.2348 6.23242 9.3494C5.86446 8.46401 5.76819 7.48975 5.95577 6.54983C6.14335 5.6099 6.60637 4.74652 7.28627 4.06888C7.96617 3.39123 8.83243 2.92974 9.77548 2.74278C10.7185 2.55582 11.696 2.65177 12.5843 3.01851C13.4727 3.38526 14.232 4.00631 14.7662 4.80314C15.3003 5.59997 15.5855 6.53679 15.5855 7.49513C15.5855 8.78022 15.0733 10.0127 14.1616 10.9214C13.2498 11.8301 12.0133 12.3406 10.7239 12.3406V12.3406ZM-93.097 14.579C-93.6785 13.8288 -93.9959 12.9085 -94 11.9604L-92.482 11.5492C-92.4626 12.2106 -92.3048 12.8607 -92.0188 13.4579C-91.8996 13.691 -91.7143 13.884 -91.4859 14.013C-91.2576 14.142 -90.9962 14.2012 -90.7343 14.1833C-90.5482 14.194 -90.362 14.1649 -90.1882 14.098C-90.0143 14.0311 -89.8568 13.9279 -89.7262 13.7954C-89.48 13.4962 -89.3575 13.1146 -89.3837 12.7285C-89.3658 12.2876 -89.4767 11.851 -89.7028 11.4716C-89.9878 11.0574 -90.3298 10.6852 -90.7187 10.3659L-92.7895 8.56974C-93.1713 8.25139 -93.4794 7.85433 -93.6925 7.4059C-93.8945 6.91407 -93.99 6.38527 -93.9728 5.85411C-93.9961 5.47135 -93.939 5.08795 -93.8049 4.72851C-93.6708 4.36908 -93.4628 4.04155 -93.1943 3.76696C-92.9093 3.51057 -92.576 3.31307 -92.2139 3.18588C-91.8518 3.05869 -91.468 3.00434 -91.0846 3.02598C-90.6836 2.99689 -90.2808 3.0508 -89.9017 3.18433C-89.5225 3.31786 -89.1752 3.52811 -88.8815 3.80188C-88.3872 4.31397 -88.1031 5.11314 -87.9863 6.19163L-89.4459 6.57957C-89.4602 6.00428 -89.6039 5.43951 -89.8663 4.92692C-89.9961 4.72671 -90.179 4.56631 -90.3948 4.46357C-90.6106 4.36084 -90.8507 4.31979 -91.0885 4.345C-91.2703 4.3325 -91.4527 4.35626 -91.6251 4.41488C-91.7976 4.4735 -91.9565 4.5658 -92.0927 4.6864C-92.2155 4.82194 -92.3094 4.98083 -92.369 5.1535C-92.4285 5.32618 -92.4524 5.50907 -92.4392 5.69118C-92.4481 6.00745 -92.3856 6.32168 -92.2562 6.61061C-92.1011 6.89931 -91.8893 7.15395 -91.6334 7.35935L-89.5549 9.17494C-89.0442 9.61846 -88.6103 10.1427 -88.2704 10.7267C-87.9471 11.3008 -87.782 11.95 -87.7917 12.6083C-87.7719 13.0013 -87.8347 13.3942 -87.9761 13.7616C-88.1176 14.1291 -88.3345 14.463 -88.613 14.742C-88.8979 15.0052 -89.2326 15.2094 -89.5974 15.3426C-89.9623 15.4758 -90.35 15.5354 -90.7382 15.5179C-91.1769 15.5486 -91.617 15.4801 -92.0254 15.3175C-92.4338 15.155 -92.8002 14.9025 -93.097 14.579V14.579ZM-83.7553 3.13461H-82.1011L-79.4737 15.3937H-81.0968L-81.6573 12.2901H-84.1445L-84.7362 15.3937H-86.3632L-83.7553 3.13461ZM-81.887 11.0836L-82.9185 5.5554L-83.9344 11.0836H-81.887ZM-77.4653 3.13461H-76.2976L-72.7944 11.2815V3.13461H-71.3659V15.3937H-72.4675L-76.0095 7.02571V15.3937H-77.4653V3.13461ZM-68.688 3.13461H-67.5203L-64.0172 11.2815V3.13461H-62.5887V15.3937H-63.6902L-67.2284 7.02571V15.3937H-68.688V3.13461ZM-59.9107 3.13461H-55.1387V4.40707H-58.1942V8.46112H-55.7303V9.67151H-58.1942V14.1601H-55.1114V15.3821H-59.9107V3.13461ZM-48.7319 3.13461H-45.6803C-44.6176 3.13461 -43.8431 3.42169 -43.3448 3.99585C-42.8466 4.57001 -42.6209 5.41573 -42.6209 6.52526C-42.5719 7.37186 -42.8505 8.20494 -43.3993 8.85294C-43.6937 9.14276 -44.0465 9.36698 -44.4344 9.51076C-44.8222 9.65455 -45.2362 9.71463 -45.6491 9.68703H-46.9998V15.3898H-48.7241L-48.7319 3.13461ZM-46.2252 8.46112C-45.829 8.47741 -45.4331 8.42086 -45.0575 8.2943C-44.9204 8.2467 -44.7949 8.17102 -44.689 8.07213C-44.5831 7.97324 -44.4991 7.85334 -44.4425 7.72014C-44.3052 7.34798 -44.243 6.95247 -44.2595 6.5563C-44.2399 6.09313 -44.2858 5.62952 -44.3958 5.17909C-44.4329 5.04212 -44.5005 4.91522 -44.5934 4.80778C-44.6864 4.70033 -44.8024 4.6151 -44.9329 4.55837C-45.3398 4.41532 -45.771 4.35337 -46.2018 4.37604H-47.0076V8.46112H-46.2252ZM-40.6825 3.13461H-35.9143V4.40707H-38.9659V8.46112H-36.4904V9.67151H-38.9659V14.1601H-35.8793V15.3821H-40.6825V3.13461ZM-32.3762 4.40707H-34.4547V3.13461H-28.6395V4.40707H-30.6596V15.3937H-32.3762V4.40707ZM-26.6972 3.13461H-21.9252V4.40707H-24.9807V8.46112H-22.5051V9.67151H-24.9807V14.1601H-21.8979V15.3821H-26.7128L-26.6972 3.13461ZM-19.7533 3.13461H-17.2816C-16.0322 3.13461 -15.1213 3.39065 -14.557 3.9105C-13.9926 4.43035 -13.6928 5.23728 -13.6928 6.40112C-13.6928 7.97618 -14.1989 8.92665 -15.2109 9.26029L-13.4632 15.4054H-15.1175L-16.7289 9.65599H-18.0679V15.3937H-19.7805L-19.7533 3.13461ZM-17.3867 8.41844C-16.8207 8.47131 -16.2551 8.31379 -15.7986 7.97618C-15.4794 7.68522 -15.3199 7.15374 -15.3199 6.38948C-15.3061 5.98582 -15.3627 5.58285 -15.4872 5.19849C-15.5932 4.91825 -15.8058 4.69101 -16.0789 4.56613C-16.4596 4.40975 -16.8704 4.33953 -17.2816 4.36052H-18.0601V8.41844H-17.3867ZM-10.579 14.579C-11.1605 13.8288 -11.4779 12.9085 -11.482 11.9604L-9.96397 11.5492C-9.94458 12.2106 -9.78682 12.8607 -9.50078 13.4579C-9.38159 13.691 -9.1963 13.884 -8.96792 14.013C-8.73955 14.142 -8.47817 14.2012 -8.2163 14.1833C-8.03023 14.194 -7.84403 14.1649 -7.67016 14.098C-7.49629 14.0311 -7.33878 13.9279 -7.20818 13.7954C-6.96197 13.4962 -6.83948 13.1146 -6.86565 12.7285C-6.84782 12.2876 -6.95869 11.851 -7.18483 11.4716C-7.47094 11.0583 -7.81279 10.6863 -8.20073 10.3659L-10.2676 8.55034C-10.6494 8.23199 -10.9575 7.83493 -11.1706 7.3865C-11.3726 6.89467 -11.4681 6.36587 -11.4509 5.83472C-11.4742 5.45196 -11.4171 5.06855 -11.283 4.70912C-11.1489 4.34968 -10.9409 4.02215 -10.6724 3.74756C-10.0576 3.26203 -9.29488 3.00041 -8.51053 3.00605C-7.72618 3.0117 -6.9673 3.28427 -6.35965 3.7786C-5.86532 4.29069 -5.58117 5.08986 -5.4644 6.16835L-6.92015 6.5563C-6.93501 5.97984 -7.07861 5.41394 -7.34052 4.89977C-7.47027 4.69956 -7.65321 4.53916 -7.86899 4.43642C-8.08477 4.33368 -8.32493 4.29263 -8.56272 4.31785C-8.74537 4.29597 -8.93061 4.31573 -9.10447 4.37565C-9.27834 4.43556 -9.43627 4.53406 -9.56635 4.66371C-9.69643 4.79336 -9.79526 4.95077 -9.85538 5.12406C-9.91549 5.29735 -9.93532 5.48198 -9.91337 5.66402C-9.92422 5.98045 -9.86162 6.2951 -9.73043 6.58345C-9.57535 6.87216 -9.36355 7.12679 -9.10765 7.33219L-7.02913 9.14778C-6.51846 9.59131 -6.0845 10.1156 -5.74465 10.6996C-5.42207 11.2832 -5.26214 11.9422 -5.28146 12.6083C-5.2626 13.0012 -5.32587 13.3938 -5.46725 13.7611C-5.60863 14.1284 -5.82504 14.4624 -6.10275 14.742C-6.73613 15.2732 -7.54509 15.5508 -8.37238 15.5207C-9.19966 15.4906 -9.98615 15.1549 -10.579 14.579Z" fill="#272142"/>
</svg>
