<svg width="276" height="210" viewBox="0 0 276 210" fill="none" xmlns="http://www.w3.org/2000/svg">
<g clip-path="url(#clip0_3076:2191)">
<path d="M159.051 10.2207C161.418 15.2988 156.402 16.7371 150.655 19.4589C144.909 22.1807 140.608 25.1552 138.241 20.0771C135.874 14.9991 133.953 4.92011 142.082 1.0697C150.492 -2.91335 156.683 5.14271 159.051 10.2207Z" fill="#2F2E41"/>
<path d="M147.326 20.2072C151.599 20.2072 155.062 16.7162 155.062 12.4098C155.062 8.10333 151.599 4.61228 147.326 4.61228C143.054 4.61228 139.59 8.10333 139.59 12.4098C139.59 16.7162 143.054 20.2072 147.326 20.2072Z" fill="#FFB8B8"/>
<path d="M185.652 46.99C185.384 46.6376 185.117 46.2915 184.846 45.955C184.496 45.5169 184.144 45.0925 183.791 44.6819C179.781 40.0183 175.516 37.0816 170.82 36.7673H170.814L170.744 36.761L161.387 45.955L158.205 49.0789L158.275 49.2504L159.991 53.5585H190.068C188.713 51.2915 187.239 49.0989 185.652 46.99V46.99Z" fill="#2F2E41"/>
<path d="M138.914 15.549L141.683 14.2374L141.298 10.2108L143.149 13.543L144.473 12.9161L144.248 10.5673L145.328 12.5111L155.163 7.85292C154.239 5.87159 152.572 4.34127 150.529 3.59861C148.486 2.85594 146.234 2.96177 144.268 3.8928L142.843 4.5679C140.877 5.49895 139.359 7.17893 138.622 9.23829C137.885 11.2976 137.99 13.5677 138.914 15.549V15.549Z" fill="#2F2E41"/>
<path d="M203.007 157.086H41.4777C40.0999 157.084 38.7789 156.532 37.8046 155.55C36.8303 154.568 36.2823 153.236 36.2807 151.848V54.0169C36.2818 52.9995 36.6833 52.024 37.3971 51.3045C38.1108 50.5851 39.0786 50.1804 40.088 50.1792H204.331C205.358 50.1804 206.342 50.5921 207.068 51.324C207.794 52.0559 208.203 53.0482 208.204 54.0833V151.848C208.202 153.236 207.654 154.568 206.68 155.55C205.706 156.532 204.385 157.084 203.007 157.086Z" fill="#F2F2F2"/>
<path d="M46.5173 151.848H197.967C199.304 151.848 200.586 151.312 201.531 150.36C202.476 149.407 203.007 148.115 203.007 146.768V63.7335C203.007 62.3863 202.476 61.0943 201.531 60.1417C200.586 59.1891 199.304 58.6539 197.967 58.6539H46.5173C45.1807 58.6539 43.8989 59.1891 42.9538 60.1417C42.0087 61.0943 41.4777 62.3863 41.4777 63.7335V146.768C41.4777 148.115 42.0087 149.407 42.9538 150.36C43.8989 151.312 45.1807 151.848 46.5173 151.848Z" fill="white"/>
<path d="M208.132 53.7173H36.2078V51.0504C36.2098 49.657 36.76 48.3212 37.7379 47.3362C38.7157 46.3513 40.0413 45.7974 41.4237 45.7963H202.916C204.298 45.7974 205.624 46.3512 206.601 47.3362C207.579 48.3212 208.13 49.657 208.132 51.0504V53.7173Z" fill="#14F1D9"/>
<path d="M45.6869 51.1245C46.432 51.1245 47.0361 50.5157 47.0361 49.7647C47.0361 49.0136 46.432 48.4048 45.6869 48.4048C44.9418 48.4048 44.3378 49.0136 44.3378 49.7647C44.3378 50.5157 44.9418 51.1245 45.6869 51.1245Z" fill="white"/>
<path d="M50.808 51.1245C51.5531 51.1245 52.1572 50.5157 52.1572 49.7647C52.1572 49.0136 51.5531 48.4048 50.808 48.4048C50.0629 48.4048 49.4589 49.0136 49.4589 49.7647C49.4589 50.5157 50.0629 51.1245 50.808 51.1245Z" fill="white"/>
<path d="M55.929 51.1245C56.6742 51.1245 57.2782 50.5157 57.2782 49.7647C57.2782 49.0136 56.6742 48.4048 55.929 48.4048C55.1839 48.4048 54.5799 49.0136 54.5799 49.7647C54.5799 50.5157 55.1839 51.1245 55.929 51.1245Z" fill="white"/>
<path d="M126.968 133.84H113.424C112.631 133.839 111.87 133.521 111.309 132.956C110.748 132.39 110.433 131.624 110.432 130.824V117.173C110.433 116.373 110.748 115.607 111.309 115.041C111.87 114.476 112.631 114.158 113.424 114.157H126.968C127.761 114.158 128.522 114.476 129.083 115.041C129.644 115.607 129.959 116.373 129.96 117.173V130.824C129.959 131.624 129.644 132.39 129.083 132.956C128.522 133.521 127.761 133.839 126.968 133.84V133.84ZM113.424 114.792C112.798 114.792 112.197 115.044 111.755 115.49C111.312 115.936 111.063 116.542 111.062 117.173V130.824C111.063 131.455 111.312 132.061 111.755 132.507C112.197 132.953 112.798 133.205 113.424 133.205H126.968C127.594 133.205 128.195 132.953 128.638 132.507C129.08 132.061 129.33 131.455 129.33 130.824V117.173C129.33 116.542 129.08 115.936 128.638 115.49C128.195 115.044 127.594 114.792 126.968 114.792H113.424Z" fill="#CCCCCC"/>
<path d="M124.291 130.03H116.101C115.851 130.03 115.611 129.93 115.434 129.751C115.256 129.573 115.157 129.331 115.157 129.078V118.919C115.157 118.666 115.256 118.424 115.434 118.246C115.611 118.067 115.851 117.967 116.101 117.966H122.035C122.251 117.967 122.459 118.041 122.627 118.177L124.882 120.003C124.993 120.092 125.082 120.205 125.143 120.334C125.204 120.462 125.236 120.603 125.236 120.746V129.078C125.235 129.331 125.136 129.573 124.959 129.751C124.781 129.93 124.541 130.03 124.291 130.03V130.03ZM116.101 118.601C116.018 118.602 115.938 118.635 115.879 118.695C115.82 118.754 115.787 118.835 115.786 118.919V129.078C115.787 129.162 115.82 129.243 115.879 129.302C115.938 129.362 116.018 129.395 116.101 129.396H124.291C124.374 129.395 124.454 129.362 124.513 129.302C124.572 129.243 124.606 129.162 124.606 129.078V120.746C124.606 120.698 124.595 120.651 124.575 120.608C124.555 120.566 124.525 120.528 124.488 120.498L122.232 118.671C122.177 118.626 122.107 118.601 122.035 118.601H116.101Z" fill="#CCCCCC"/>
<path d="M122.716 122.411H117.676C117.593 122.411 117.513 122.378 117.454 122.318C117.394 122.259 117.361 122.178 117.361 122.094C117.361 122.009 117.394 121.929 117.454 121.869C117.513 121.81 117.593 121.776 117.676 121.776H122.716C122.799 121.776 122.879 121.81 122.939 121.869C122.998 121.929 123.031 122.009 123.031 122.094C123.031 122.178 122.998 122.259 122.939 122.318C122.879 122.378 122.799 122.411 122.716 122.411Z" fill="#CCCCCC"/>
<path d="M122.716 124.316H117.676C117.593 124.316 117.513 124.282 117.454 124.223C117.394 124.163 117.361 124.083 117.361 123.998C117.361 123.914 117.394 123.834 117.454 123.774C117.513 123.714 117.593 123.681 117.676 123.681H122.716C122.799 123.681 122.879 123.714 122.939 123.774C122.998 123.834 123.031 123.914 123.031 123.998C123.031 124.083 122.998 124.163 122.939 124.223C122.879 124.282 122.799 124.316 122.716 124.316Z" fill="#CCCCCC"/>
<path d="M122.716 126.221H117.676C117.593 126.221 117.513 126.187 117.454 126.128C117.394 126.068 117.361 125.988 117.361 125.903C117.361 125.819 117.394 125.738 117.454 125.679C117.513 125.619 117.593 125.586 117.676 125.586H122.716C122.799 125.586 122.879 125.619 122.939 125.679C122.998 125.738 123.031 125.819 123.031 125.903C123.031 125.988 122.998 126.068 122.939 126.128C122.879 126.187 122.799 126.221 122.716 126.221Z" fill="#CCCCCC"/>
<path d="M159.095 133.84H145.551C144.758 133.839 143.997 133.521 143.436 132.956C142.875 132.39 142.56 131.624 142.559 130.824V117.173C142.56 116.373 142.875 115.607 143.436 115.041C143.997 114.476 144.758 114.158 145.551 114.157H159.095C159.888 114.158 160.649 114.476 161.21 115.041C161.771 115.607 162.086 116.373 162.087 117.173V130.824C162.086 131.624 161.771 132.39 161.21 132.956C160.649 133.521 159.888 133.839 159.095 133.84V133.84ZM145.551 114.792C144.925 114.792 144.325 115.044 143.882 115.49C143.439 115.936 143.19 116.542 143.189 117.173V130.824C143.19 131.455 143.439 132.061 143.882 132.507C144.325 132.953 144.925 133.205 145.551 133.205H159.095C159.721 133.205 160.322 132.953 160.765 132.507C161.207 132.061 161.457 131.455 161.457 130.824V117.173C161.457 116.542 161.207 115.936 160.765 115.49C160.322 115.044 159.721 114.792 159.095 114.792H145.551Z" fill="#CCCCCC"/>
<path d="M156.733 127.491H147.914C147.663 127.49 147.423 127.39 147.246 127.211C147.069 127.033 146.969 126.791 146.969 126.538V121.459C146.969 121.206 147.069 120.964 147.246 120.786C147.423 120.607 147.663 120.507 147.914 120.506H156.733C156.983 120.507 157.223 120.607 157.401 120.786C157.578 120.964 157.677 121.206 157.678 121.459V126.538C157.677 126.791 157.578 127.033 157.401 127.211C157.223 127.39 156.983 127.49 156.733 127.491V127.491ZM147.914 121.141C147.83 121.141 147.75 121.175 147.691 121.234C147.632 121.294 147.599 121.374 147.599 121.459V126.538C147.599 126.622 147.632 126.703 147.691 126.763C147.75 126.822 147.83 126.856 147.914 126.856H156.733C156.816 126.856 156.896 126.822 156.955 126.763C157.014 126.703 157.048 126.622 157.048 126.538V121.459C157.048 121.374 157.014 121.294 156.955 121.234C156.896 121.175 156.816 121.141 156.733 121.141H147.914Z" fill="#CCCCCC"/>
<path d="M152.323 124.836C152.146 124.836 151.973 124.786 151.822 124.692L147.117 121.728C147.046 121.683 146.996 121.612 146.977 121.53C146.958 121.448 146.973 121.362 147.017 121.291C147.061 121.219 147.132 121.169 147.213 121.15C147.294 121.131 147.38 121.145 147.451 121.189L152.156 124.154C152.207 124.185 152.264 124.202 152.323 124.202C152.382 124.202 152.44 124.185 152.49 124.154L157.196 121.189C157.266 121.145 157.352 121.131 157.433 121.15C157.515 121.169 157.585 121.219 157.629 121.291C157.673 121.362 157.688 121.448 157.669 121.53C157.651 121.612 157.6 121.683 157.53 121.728L152.824 124.692C152.674 124.787 152.5 124.836 152.323 124.836V124.836Z" fill="#CCCCCC"/>
<path d="M94.8409 133.84H81.2972C80.5038 133.839 79.7433 133.521 79.1823 132.956C78.6214 132.39 78.3058 131.624 78.3049 130.824V117.173C78.3058 116.373 78.6214 115.607 79.1823 115.041C79.7433 114.476 80.5038 114.158 81.2972 114.157H94.8409C95.6342 114.158 96.3948 114.476 96.9557 115.041C97.5167 115.607 97.8322 116.373 97.8331 117.173V130.824C97.8322 131.624 97.5167 132.39 96.9557 132.956C96.3948 133.521 95.6342 133.839 94.8409 133.84V133.84ZM81.2972 114.792C80.6709 114.792 80.0704 115.044 79.6275 115.49C79.1847 115.936 78.9356 116.542 78.9349 117.173V130.824C78.9356 131.455 79.1847 132.061 79.6275 132.507C80.0704 132.953 80.6709 133.205 81.2972 133.205H94.8409C95.4672 133.205 96.0677 132.953 96.5105 132.507C96.9534 132.061 97.2025 131.455 97.2032 130.824V117.173C97.2025 116.542 96.9534 115.936 96.5105 115.49C96.0677 115.044 95.4672 114.792 94.8409 114.792H81.2972Z" fill="#CCCCCC"/>
<path d="M92.4786 127.491H83.6595C83.4089 127.49 83.1687 127.39 82.9916 127.211C82.8145 127.033 82.7148 126.791 82.7145 126.538V121.459C82.7148 121.206 82.8145 120.964 82.9916 120.786C83.1687 120.607 83.4089 120.507 83.6595 120.506H92.4786C92.7292 120.507 92.9693 120.607 93.1465 120.786C93.3236 120.964 93.4233 121.206 93.4235 121.459V126.538C93.4233 126.791 93.3236 127.033 93.1465 127.211C92.9693 127.39 92.7292 127.49 92.4786 127.491V127.491ZM83.6595 121.141C83.5759 121.141 83.4959 121.175 83.4368 121.234C83.3778 121.294 83.3446 121.374 83.3445 121.459V126.538C83.3446 126.622 83.3778 126.703 83.4368 126.763C83.4959 126.822 83.5759 126.856 83.6595 126.856H92.4786C92.5621 126.856 92.6422 126.822 92.7013 126.763C92.7603 126.703 92.7935 126.622 92.7936 126.538V121.459C92.7935 121.374 92.7603 121.294 92.7013 121.234C92.6422 121.175 92.5621 121.141 92.4786 121.141H83.6595Z" fill="#CCCCCC"/>
<path d="M91.0808 127.491H84.7424C84.6318 127.491 84.5231 127.461 84.4273 127.406C84.3316 127.35 84.252 127.27 84.1967 127.173C84.1414 127.077 84.1123 126.967 84.1124 126.856C84.1124 126.744 84.1415 126.635 84.1969 126.538L86.1061 123.205C86.1614 123.108 86.2409 123.028 86.3367 122.972C86.4324 122.917 86.5411 122.887 86.6516 122.887C86.7622 122.887 86.8709 122.917 86.9666 122.972C87.0624 123.028 87.1419 123.108 87.1972 123.205L88.4303 125.358L89.1447 124.11C89.2 124.014 89.2795 123.934 89.3753 123.878C89.4711 123.822 89.5797 123.793 89.6903 123.793C89.8009 123.793 89.9095 123.822 90.0053 123.878C90.101 123.934 90.1806 124.014 90.2359 124.11L91.6265 126.538C91.6818 126.635 91.7109 126.744 91.7109 126.856C91.7109 126.967 91.6817 127.077 91.6264 127.173C91.5711 127.27 91.4916 127.35 91.3958 127.406C91.3 127.461 91.1914 127.491 91.0808 127.491H91.0808ZM91.0808 126.856L89.6902 124.428L88.7032 126.151C88.6755 126.2 88.6358 126.24 88.5879 126.268C88.54 126.295 88.4857 126.31 88.4304 126.31V126.31C88.3751 126.31 88.3207 126.295 88.2728 126.268C88.2249 126.24 88.1852 126.2 88.1575 126.151L86.6517 123.522L84.7424 126.856H91.0808Z" fill="#CCCCCC"/>
<path d="M91.5337 123.046C91.8816 123.046 92.1636 122.762 92.1636 122.411C92.1636 122.06 91.8816 121.776 91.5337 121.776C91.1858 121.776 90.9037 122.06 90.9037 122.411C90.9037 122.762 91.1858 123.046 91.5337 123.046Z" fill="#CCCCCC"/>
<path d="M242.157 205.77L238.296 205.77L236.459 190.757L242.158 190.758L242.157 205.77Z" fill="#FFB8B8"/>
<path d="M243.142 209.543L230.691 209.543V209.384C230.691 208.743 230.817 208.107 231.06 207.515C231.304 206.922 231.661 206.384 232.111 205.93C232.561 205.476 233.095 205.117 233.683 204.871C234.271 204.626 234.901 204.499 235.538 204.499H235.538L243.142 204.5L243.142 209.543Z" fill="#2F2E41"/>
<path d="M257.906 205.77L254.044 205.77L252.208 190.757L257.907 190.758L257.906 205.77Z" fill="#FFB8B8"/>
<path d="M258.891 209.543L246.44 209.543V209.384C246.44 208.743 246.565 208.107 246.809 207.515C247.052 206.922 247.409 206.384 247.859 205.93C248.309 205.476 248.843 205.117 249.431 204.871C250.019 204.626 250.65 204.499 251.286 204.499H251.286L258.891 204.5L258.891 209.543Z" fill="#2F2E41"/>
<path d="M256.748 199.262L253.172 198.166C252.906 198.084 252.669 197.925 252.491 197.709C252.314 197.492 252.204 197.228 252.175 196.949L248.841 165.098C248.838 165.059 248.821 165.023 248.793 164.997C248.765 164.971 248.728 164.956 248.69 164.956C248.652 164.952 248.613 164.964 248.583 164.988C248.553 165.012 248.534 165.047 248.529 165.086L242.944 195.944C242.91 196.131 242.84 196.31 242.736 196.469C242.633 196.628 242.499 196.765 242.343 196.872C242.186 196.978 242.01 197.052 241.825 197.089C241.64 197.126 241.449 197.125 241.264 197.087L236.693 196.138C236.358 196.067 236.06 195.877 235.852 195.602C235.645 195.327 235.543 194.986 235.565 194.642L238.962 144.064L261.999 141.559L258.576 197.982C258.553 198.345 258.395 198.686 258.133 198.935C257.87 199.184 257.524 199.324 257.163 199.325C257.023 199.325 256.883 199.304 256.748 199.262V199.262Z" fill="#2F2E41"/>
<path d="M256.726 100.019C260.999 100.019 264.463 96.5283 264.463 92.2219C264.463 87.9154 260.999 84.4244 256.726 84.4244C252.454 84.4244 248.99 87.9154 248.99 92.2219C248.99 96.5283 252.454 100.019 256.726 100.019Z" fill="#FFB8B8"/>
<path d="M238.927 144.361L243.922 112.661C244.187 110.976 244.806 109.367 245.737 107.941C246.667 106.515 247.888 105.306 249.319 104.393C250.749 103.48 252.356 102.884 254.033 102.646C255.709 102.407 257.417 102.532 259.042 103.01V103.01C261.884 103.839 264.317 105.705 265.866 108.245C267.415 110.785 267.97 113.815 267.421 116.745L262.195 145.055L238.927 144.361Z" fill="#14F1D9"/>
<path d="M258.862 150.033C259.249 149.776 259.574 149.437 259.817 149.039C260.059 148.641 260.211 148.195 260.264 147.731C260.316 147.267 260.267 146.798 260.12 146.355C259.973 145.913 259.731 145.508 259.412 145.17L264.577 135.089L258.761 135.715L254.748 145.191C254.22 145.769 253.921 146.522 253.906 147.308C253.892 148.094 254.165 148.857 254.672 149.454C255.179 150.051 255.885 150.44 256.658 150.546C257.43 150.653 258.214 150.471 258.862 150.033V150.033Z" fill="#FFB8B8"/>
<path d="M259.968 143.392C259.682 143.351 259.416 143.224 259.204 143.026L257.228 141.186C257.014 140.986 256.867 140.725 256.805 140.438C256.744 140.151 256.771 139.852 256.884 139.581L260.833 130.147L260.273 111.505C260.353 110.905 260.55 110.328 260.852 109.806C261.154 109.283 261.555 108.826 262.033 108.46C262.511 108.093 263.055 107.826 263.635 107.672C264.215 107.518 264.82 107.481 265.414 107.563C266.009 107.644 266.582 107.843 267.1 108.148C267.618 108.453 268.071 108.858 268.434 109.34C268.797 109.821 269.062 110.37 269.214 110.955C269.366 111.54 269.402 112.15 269.321 112.749L270.279 124.467C270.57 128.024 269.569 131.566 267.464 134.435L261.305 142.827C261.187 142.988 261.036 143.122 260.863 143.221C260.689 143.32 260.497 143.38 260.299 143.399C260.189 143.41 260.078 143.407 259.968 143.392V143.392Z" fill="#14F1D9"/>
<path d="M212.177 87.9735C212.262 88.4324 212.445 88.8671 212.714 89.247C212.983 89.6269 213.331 89.9427 213.734 90.1722C214.137 90.4017 214.586 90.5393 215.047 90.5753C215.509 90.6113 215.973 90.5448 216.406 90.3806L223.602 99.1042L225.298 93.4621L218.205 86.043C217.883 85.3274 217.311 84.7557 216.599 84.4362C215.887 84.1168 215.083 84.0718 214.34 84.3097C213.597 84.5477 212.967 85.0521 212.568 85.7274C212.169 86.4026 212.03 87.2018 212.177 87.9735V87.9735Z" fill="#FFB8B8"/>
<path d="M217.814 91.5895C217.962 91.3402 218.183 91.1424 218.446 91.0226L220.897 89.9061C221.163 89.7859 221.459 89.7508 221.745 89.8056C222.031 89.8604 222.294 90.0024 222.497 90.2125L229.577 97.5564L246.827 104.305C247.343 104.613 247.794 105.021 248.154 105.505C248.514 105.989 248.775 106.54 248.924 107.126C249.072 107.712 249.104 108.322 249.019 108.92C248.933 109.519 248.731 110.095 248.425 110.615C248.118 111.135 247.713 111.589 247.233 111.951C246.752 112.313 246.205 112.576 245.623 112.725C245.042 112.874 244.437 112.906 243.843 112.819C243.249 112.732 242.678 112.528 242.163 112.218L231.083 108.538C227.72 107.422 224.874 105.112 223.074 102.039L217.809 93.051C217.708 92.8781 217.644 92.6857 217.621 92.4863C217.599 92.2869 217.618 92.085 217.678 91.8936C217.711 91.7872 217.757 91.6851 217.814 91.5895V91.5895Z" fill="#14F1D9"/>
<path opacity="0.1" d="M263.001 119.26L262.686 129.419L256.884 139.581L261.729 128.256L263.001 119.26Z" fill="black"/>
<path d="M255.84 93.6872C255.354 93.7509 254.862 93.6346 254.455 93.3601C254.048 93.0855 253.753 92.6713 253.626 92.1944C253.503 91.6455 253.235 91.1405 252.849 90.7337C252.463 90.3269 251.975 90.0336 251.436 89.8852C250.017 89.5584 248.283 90.2317 247.243 89.148C247.021 88.9006 246.859 88.6034 246.773 88.2809C246.687 87.9584 246.678 87.6198 246.747 87.2932C246.938 86.2401 247.686 85.4445 248.499 84.8081C250.211 83.4753 252.282 82.6951 254.441 82.5697C255.559 82.5371 256.678 82.5932 257.787 82.7375C258.948 82.8113 260.096 83.0229 261.208 83.3678C262.475 83.8497 263.601 84.6457 264.482 85.6822C265.363 86.7188 265.971 87.9625 266.249 89.2983C266.503 90.6382 266.464 92.0179 266.134 93.341C265.805 94.6642 265.193 95.8989 264.341 96.959C263.321 98.239 262.006 99.2481 260.51 99.8984C260.154 100.068 259.746 100.089 259.375 99.9565C258.443 99.5832 258.595 98.4202 259.02 97.6445C259.475 96.8143 260.174 96.0106 259.808 95.0004C259.625 94.5319 259.274 94.1503 258.823 93.9317C257.897 93.4557 256.862 93.5683 255.866 93.6842L255.84 93.6872Z" fill="#2F2E41"/>
<path d="M209.592 98.0906H113.841C112.463 98.089 111.142 97.5366 110.168 96.5546C109.194 95.5726 108.645 94.2411 108.644 92.8523V72.2165C108.645 70.8277 109.194 69.4962 110.168 68.5142C111.142 67.5322 112.463 66.9798 113.841 66.9782H209.592C210.97 66.9798 212.291 67.5322 213.265 68.5142C214.239 69.4963 214.788 70.8277 214.789 72.2165V92.8523C214.788 94.2411 214.239 95.5725 213.265 96.5546C212.291 97.5366 210.97 98.089 209.592 98.0906V98.0906Z" fill="white"/>
<path d="M209.592 98.2494H113.841C112.421 98.2478 111.06 97.6786 110.056 96.6668C109.053 95.655 108.488 94.2832 108.486 92.8523V72.2166C108.488 70.7857 109.053 69.4138 110.056 68.402C111.06 67.3903 112.421 66.8211 113.841 66.8195H209.592C211.012 66.8211 212.373 67.3903 213.376 68.402C214.38 69.4138 214.945 70.7857 214.947 72.2166V92.8523C214.945 94.2832 214.38 95.655 213.376 96.6668C212.373 97.6786 211.012 98.2478 209.592 98.2494ZM113.841 67.4545C112.588 67.4559 111.387 67.9581 110.502 68.8508C109.616 69.7436 109.118 70.954 109.116 72.2166V92.8523C109.118 94.1149 109.616 95.3253 110.502 96.2181C111.387 97.1108 112.588 97.613 113.841 97.6144H209.592C210.845 97.613 212.046 97.1108 212.931 96.2181C213.817 95.3253 214.315 94.1149 214.317 92.8523V72.2166C214.315 70.954 213.817 69.7436 212.931 68.8508C212.046 67.9581 210.845 67.4559 209.592 67.4545H113.841Z" fill="#3F3D56"/>
<path d="M197.938 93.0111H125.495C124.117 93.0095 122.796 92.4571 121.822 91.4751C120.847 90.493 120.299 89.1616 120.298 87.7727V76.9786C120.299 75.5898 120.847 74.2584 121.822 73.2763C122.796 72.2943 124.117 71.7419 125.495 71.7403H197.938C199.316 71.7419 200.637 72.2943 201.611 73.2763C202.585 74.2584 203.134 75.5898 203.135 76.9786V87.7727C203.134 89.1616 202.585 90.493 201.611 91.4751C200.637 92.4571 199.316 93.0095 197.938 93.0111V93.0111Z" fill="#F2F2F2"/>
<path d="M141.084 87.1932C144.517 87.1932 147.299 84.3885 147.299 80.9287C147.299 77.4689 144.517 74.6642 141.084 74.6642C137.652 74.6642 134.869 77.4689 134.869 80.9287C134.869 84.3885 137.652 87.1932 141.084 87.1932Z" fill="#FF6584"/>
<path d="M193.436 92.3789L184.663 84.9628L176.042 77.6747C175.815 77.4824 175.527 77.3773 175.23 77.3779C174.933 77.3784 174.646 77.4847 174.419 77.6779L165.826 84.9994L163.727 86.7878L160.562 84.1123L150.944 75.9816C150.716 75.7893 150.429 75.6841 150.132 75.6847C149.835 75.6853 149.548 75.7915 149.321 75.9847L139.734 84.1528L129.996 92.4495C129.946 92.4915 129.911 92.5478 129.895 92.6107C129.878 92.6737 129.881 92.7402 129.903 92.8013C129.926 92.8625 129.966 92.9152 130.019 92.9524C130.072 92.9896 130.135 93.0095 130.2 93.0094L150.165 92.9706L156.484 92.9584L156.422 93.0111L175.26 92.9745L193.234 92.9396C193.299 92.9395 193.362 92.9193 193.415 92.8819C193.468 92.8445 193.508 92.7916 193.53 92.7304C193.552 92.6692 193.555 92.6026 193.538 92.5397C193.521 92.4768 193.486 92.4207 193.436 92.3789Z" fill="#3F3D56"/>
<path d="M275.685 210H215.211C215.127 210 215.047 209.967 214.988 209.907C214.929 209.847 214.896 209.767 214.896 209.683C214.896 209.598 214.929 209.518 214.988 209.458C215.047 209.399 215.127 209.365 215.211 209.365H275.685C275.769 209.365 275.849 209.399 275.908 209.458C275.967 209.518 276 209.598 276 209.683C276 209.767 275.967 209.847 275.908 209.907C275.849 209.967 275.769 210 275.685 210Z" fill="#CCCCCC"/>
<path d="M190.26 41.8786C190.008 41.4666 189.676 41.1105 189.284 40.8322C188.891 40.5538 188.446 40.359 187.976 40.2595C187.804 40.223 187.629 40.2008 187.454 40.1929L163.456 18.5666C162.985 18.0782 162.356 17.7754 161.683 17.7126C161.55 17.6972 161.416 17.6929 161.283 17.6999C160.729 17.7252 160.195 17.9127 159.745 18.2392C159.295 18.5658 158.95 19.0174 158.751 19.5387C158.551 20.0601 158.507 20.6286 158.624 21.1748C158.74 21.7211 159.012 22.2213 159.406 22.6144L168.593 30.6877L183.68 43.9422C183.693 44.1918 183.73 44.4396 183.79 44.6819C183.971 45.3838 184.359 46.0138 184.903 46.4884C185.447 46.9629 186.121 47.2597 186.836 47.3392C187.488 47.416 188.149 47.3059 188.742 47.0217C189.212 46.8001 189.629 46.4784 189.964 46.0788C189.999 46.0375 190.03 45.9994 190.062 45.955C190.502 45.3765 190.757 44.6764 190.792 43.948C190.828 43.2197 190.642 42.4978 190.26 41.8786H190.26Z" fill="#FFB8B8"/>
<path d="M149.213 62.7208L148.989 53.5585L148.8 45.955L148.671 40.6342L148.416 30.2623C148.366 29.707 148.156 29.1785 147.812 28.7413C147.469 28.3042 147.007 27.9773 146.482 27.8005C145.957 27.6238 145.393 27.6049 144.858 27.746C144.322 27.8872 143.839 28.1824 143.468 28.5956C143.38 28.69 143.301 28.7919 143.232 28.9003C142.844 29.4601 142.669 30.1421 142.74 30.821L143.301 45.955L143.581 53.5585L143.94 63.2573C143.837 63.3998 143.743 63.5494 143.66 63.705C143.436 64.1331 143.301 64.6026 143.262 65.085C143.224 65.5675 143.283 66.0528 143.437 66.5114C143.597 66.9924 143.856 67.4338 144.197 67.8064C144.539 68.1791 144.955 68.4746 145.418 68.6734C145.881 68.8723 146.38 68.97 146.884 68.9602C147.387 68.9503 147.882 68.8331 148.337 68.6163C148.866 68.3644 149.325 67.9852 149.673 67.5122C150.022 67.0391 150.25 66.4868 150.336 65.9041C150.423 65.3213 150.365 64.726 150.17 64.1708C149.974 63.6156 149.645 63.1176 149.213 62.7208H149.213Z" fill="#FFB8B8"/>
<path d="M170.82 36.7673L168.593 30.6877L164.99 20.8397C164.73 20.1232 164.313 19.4748 163.771 18.9428C163.228 18.4108 162.574 18.0088 161.856 17.7665C161.799 17.7475 161.739 17.7284 161.683 17.7126C160.987 17.4998 160.255 17.4413 159.535 17.5411C158.815 17.6408 158.125 17.8964 157.513 18.2904L145.377 26.0494C144.265 26.7584 143.471 27.875 143.161 29.1635C142.851 30.452 143.051 31.8113 143.717 32.9545C145.234 35.5996 146.888 38.163 148.671 40.6341C150.086 42.5739 152.719 42.7803 153.175 45.955H162.124L171.182 37.7578L170.82 36.7673Z" fill="#CCCCCC"/>
<path d="M31.8639 111.069C35.8947 111.069 39.1623 107.776 39.1623 103.713C39.1623 99.6501 35.8947 96.3566 31.8639 96.3566C27.8331 96.3566 24.5655 99.6501 24.5655 103.713C24.5655 107.776 27.8331 111.069 31.8639 111.069Z" fill="#A0616A"/>
<path d="M49.7815 98.6492C49.8535 98.7069 49.9232 98.768 49.9907 98.8327C50.326 99.151 50.5907 99.5372 50.7676 99.9658C50.9445 100.395 51.0295 100.856 51.0171 101.32C51.0047 101.784 50.8952 102.24 50.6956 102.659C50.4961 103.077 50.2111 103.449 49.8593 103.748C49.7773 103.818 49.6917 103.883 49.603 103.943L50.0969 120.752C50.111 121.302 49.9487 121.842 49.634 122.292C49.3194 122.742 48.8693 123.078 48.3504 123.249L48.3203 123.256L34.7801 124.709C34.412 124.749 34.0398 124.714 33.685 124.608C33.3301 124.501 32.9997 124.325 32.7128 124.09C32.4258 123.854 32.1881 123.563 32.0132 123.234C31.8384 122.905 31.7299 122.545 31.6941 122.173C31.6583 121.802 31.6958 121.427 31.8045 121.07C31.9132 120.714 32.091 120.382 32.3275 120.095C32.564 119.808 32.8545 119.571 33.1824 119.398C33.5103 119.225 33.8689 119.119 34.2377 119.086L43.8898 118.229L45.559 103.672C45.4498 103.575 45.3475 103.47 45.253 103.358C44.7296 102.734 44.4551 101.936 44.4828 101.119C44.5105 100.302 44.8383 99.5246 45.4028 98.9377C45.9672 98.3509 46.7278 97.9963 47.537 97.943C48.3462 97.8897 49.1461 98.1414 49.7816 98.6492H49.7815Z" fill="#A0616A"/>
<path d="M43.8842 206.095H47.5275L49.2605 191.932H43.8836L43.8842 206.095Z" fill="#A0616A"/>
<path d="M42.9551 204.897L50.1295 204.896H50.1298C50.7303 204.896 51.3248 205.016 51.8795 205.247C52.4342 205.479 52.9383 205.818 53.3628 206.246C53.7874 206.674 54.1242 207.182 54.354 207.741C54.5837 208.3 54.702 208.9 54.702 209.505V209.655L42.9554 209.655L42.9551 204.897Z" fill="#2F2E41"/>
<path d="M7.67456 201.018L10.8047 202.897L19.4831 191.621L14.8631 188.849L7.67456 201.018Z" fill="#A0616A"/>
<path d="M7.48465 199.509L13.6491 203.209L13.6494 203.209C14.1653 203.518 14.6156 203.928 14.9747 204.413C15.3338 204.898 15.5945 205.449 15.7421 206.036C15.8897 206.622 15.9212 207.233 15.8348 207.831C15.7484 208.43 15.5459 209.006 15.2387 209.526L15.1627 209.655L5.06958 203.598L7.48465 199.509Z" fill="#2F2E41"/>
<path d="M48.3871 201.093H44.3077C43.9773 201.093 43.6585 200.971 43.4129 200.748C43.1673 200.525 43.0124 200.219 42.978 199.888L38.8654 160.922C38.855 160.824 38.8129 160.732 38.7455 160.66C38.6782 160.589 38.5894 160.541 38.4927 160.526C38.3961 160.51 38.2971 160.527 38.2109 160.574C38.1247 160.62 38.0562 160.694 38.0158 160.784L30.5966 177.343L17.4612 198.932C17.2912 199.209 17.0279 199.415 16.7197 199.512C16.4115 199.609 16.0788 199.591 15.7827 199.461L10.5352 197.134C10.3617 197.057 10.2064 196.944 10.0797 196.802C9.9529 196.66 9.85754 196.492 9.79992 196.31C9.74229 196.128 9.72372 195.936 9.74543 195.746C9.76714 195.556 9.82863 195.373 9.92584 195.209L22.0009 174.83L25.7042 157.659C24.5395 150.213 29.5327 139.142 29.5833 139.031L29.6081 138.977L43.362 133.558L43.431 133.643C48.8552 151.585 52.1604 170.893 49.72 199.858C49.6899 200.194 49.5366 200.507 49.2902 200.735C49.0438 200.963 48.7218 201.091 48.3871 201.093V201.093Z" fill="#2F2E41"/>
<path d="M29.0539 140.791L28.9899 140.655C28.9593 140.59 25.901 134.089 23.5434 127.14C23.0903 125.796 22.919 124.372 23.0404 122.958C23.1618 121.544 23.5732 120.171 24.2485 118.926C24.9326 117.668 25.8685 116.566 26.997 115.692C28.1254 114.817 29.4217 114.188 30.8039 113.845V113.845C33.2033 113.265 35.7295 113.574 37.9222 114.714C40.1149 115.854 41.8283 117.751 42.75 120.058C44.6201 124.771 44.0241 129.803 43.4632 133.759L43.452 133.838L43.3805 133.873L29.0539 140.791Z" fill="#3F3D56"/>
<path d="M40.713 99.5575H29.124V94.4657C31.6677 93.4471 34.1568 92.5809 35.6614 94.4657C37.0012 94.4657 38.2861 95.0022 39.2334 95.9571C40.1808 96.912 40.713 98.2071 40.713 99.5575V99.5575Z" fill="#2F2E41"/>
<path d="M28.4824 93.5672C21.5543 93.5672 19.6151 102.32 19.6151 107.258C19.6151 110.012 20.8507 110.997 22.7924 111.331L23.4781 107.644L25.0842 111.489C25.6296 111.492 26.2025 111.481 26.7966 111.47L27.3411 110.34L28.5554 111.45C33.4188 111.457 37.3496 112.172 37.3496 107.258C37.3496 102.32 35.6489 93.5672 28.4824 93.5672Z" fill="#2F2E41"/>
<path d="M60.7894 210H0.314971C0.231435 210 0.151321 209.967 0.0922526 209.907C0.0331841 209.847 0 209.767 0 209.683C0 209.598 0.0331841 209.518 0.0922526 209.458C0.151321 209.399 0.231435 209.365 0.314971 209.365H60.7894C60.8729 209.365 60.953 209.399 61.0121 209.458C61.0712 209.518 61.1043 209.598 61.1043 209.683C61.1043 209.767 61.0712 209.847 61.0121 209.907C60.953 209.967 60.8729 210 60.7894 210Z" fill="#CCCCCC"/>
<path d="M61.9265 105.551H48.3827C47.5894 105.55 46.8289 105.232 46.2679 104.667C45.707 104.101 45.3914 103.335 45.3905 102.535V88.8839C45.3914 88.0843 45.707 87.3177 46.2679 86.7523C46.8289 86.1869 47.5894 85.8688 48.3827 85.8679H61.9265C62.7198 85.8688 63.4803 86.1869 64.0413 86.7523C64.6022 87.3177 64.9178 88.0843 64.9187 88.8839V102.535C64.9178 103.335 64.6022 104.101 64.0413 104.667C63.4803 105.232 62.7198 105.55 61.9265 105.551V105.551Z" fill="white"/>
<path d="M61.9265 105.551H48.3827C47.5894 105.55 46.8289 105.232 46.2679 104.667C45.707 104.101 45.3914 103.335 45.3905 102.535V88.8839C45.3914 88.0843 45.707 87.3177 46.2679 86.7523C46.8289 86.1869 47.5894 85.8688 48.3827 85.8679H61.9265C62.7198 85.8688 63.4803 86.1869 64.0413 86.7523C64.6022 87.3177 64.9178 88.0843 64.9187 88.8839V102.535C64.9178 103.335 64.6022 104.101 64.0413 104.667C63.4803 105.232 62.7198 105.55 61.9265 105.551V105.551ZM48.3827 86.5029C47.7564 86.5036 47.156 86.7547 46.7131 87.201C46.2703 87.6474 46.0211 88.2526 46.0204 88.8839V102.535C46.0211 103.167 46.2703 103.772 46.7131 104.218C47.156 104.665 47.7564 104.916 48.3827 104.916H61.9265C62.5528 104.916 63.1532 104.665 63.5961 104.218C64.039 103.772 64.2881 103.167 64.2887 102.535V88.8839C64.2881 88.2526 64.039 87.6474 63.5961 87.201C63.1532 86.7547 62.5528 86.5036 61.9265 86.5029H48.3827Z" fill="#3F3D56"/>
<path d="M59.5642 99.9955H50.745C50.4945 99.9952 50.2543 99.8947 50.0772 99.7162C49.9 99.5376 49.8004 99.2955 49.8001 99.043V92.3761C49.8004 92.1236 49.9 91.8815 50.0772 91.703C50.2543 91.5244 50.4945 91.424 50.745 91.4237H53.2277C53.3892 91.4231 53.5481 91.4645 53.6891 91.5438C53.8301 91.6232 53.9484 91.7379 54.0325 91.8768L54.7249 93.0111H59.5642C59.8147 93.0113 60.0549 93.1118 60.2321 93.2903C60.4092 93.4689 60.5088 93.711 60.5091 93.9635V99.043C60.5088 99.2955 60.4092 99.5376 60.2321 99.7162C60.0549 99.8947 59.8147 99.9952 59.5642 99.9955V99.9955Z" fill="#14F1D9"/>
<path d="M59.2774 103.364C59.3214 103.445 59.3621 103.529 59.3995 103.614C59.5859 104.039 59.6813 104.498 59.6793 104.963C59.6773 105.427 59.578 105.886 59.3879 106.309C59.1977 106.731 58.9211 107.109 58.5761 107.417C58.2312 107.724 57.8256 107.955 57.386 108.094C57.2837 108.125 57.1798 108.152 57.0747 108.173L51.059 123.858C50.8601 124.37 50.5025 124.804 50.0394 125.096C49.5762 125.388 49.0321 125.521 48.4878 125.476L48.4576 125.47L35.4188 121.514C35.0643 121.407 34.7345 121.229 34.4483 120.992C34.1622 120.756 33.9254 120.464 33.7517 120.135C33.578 119.805 33.4708 119.444 33.4363 119.072C33.4018 118.701 33.4406 118.326 33.5506 117.97C33.6605 117.614 33.8394 117.283 34.077 116.996C34.3145 116.71 34.6059 116.474 34.9345 116.302C35.263 116.13 35.622 116.025 35.991 115.994C36.3599 115.963 36.7313 116.005 37.0838 116.119L46.3094 119.105L53.4518 106.342C53.3887 106.209 53.3348 106.072 53.2908 105.932C53.0488 105.152 53.1031 104.309 53.4431 103.567C53.7831 102.825 54.3845 102.237 55.1306 101.917C55.8767 101.597 56.7142 101.568 57.4805 101.835C58.2468 102.102 58.8872 102.647 59.2774 103.364H59.2774Z" fill="#A0616A"/>
</g>
<defs>
<clipPath id="clip0_3076:2191">
<rect width="276" height="210" fill="white"/>
</clipPath>
</defs>
</svg>
