<svg width="276" height="210" viewBox="0 0 276 210" fill="none" xmlns="http://www.w3.org/2000/svg">
<path d="M80.3254 132.642C95.4169 132.642 107.651 120.294 107.651 105.061C107.651 89.828 95.4169 77.4793 80.3254 77.4793C65.234 77.4793 53 89.828 53 105.061C53 120.294 65.234 132.642 80.3254 132.642Z" fill="#F2F2F2"/>
<path d="M80.5696 106.211C86.5875 106.211 91.4661 101.286 91.4661 95.2121C91.4661 89.1377 86.5875 84.2135 80.5696 84.2135C74.5516 84.2135 69.6731 89.1377 69.6731 95.2121C69.6731 101.286 74.5516 106.211 80.5696 106.211Z" fill="#2F2E41"/>
<path d="M107.799 41.765C107.789 47.2201 106.177 52.5498 103.167 57.0802C100.156 61.6106 95.8825 65.1381 90.8857 67.2168C85.889 69.2954 80.3938 69.8318 75.0951 68.758C69.7963 67.6843 64.932 65.0487 61.1173 61.1846C57.3025 57.3204 54.7087 52.4012 53.6637 47.049C52.6188 41.6969 53.1696 36.1521 55.2467 31.116C57.3237 26.0798 60.8337 21.7784 65.3326 18.7558C69.8316 15.7332 75.1175 14.125 80.522 14.1347C84.113 14.1317 87.6693 14.845 90.9863 16.2337C94.3034 17.6225 97.3158 19.6591 99.8506 22.2267C102.385 24.7943 104.392 27.8422 105.756 31.1952C107.12 34.5483 107.815 38.1403 107.799 41.765V41.765Z" fill="#F2F2F2"/>
<path d="M145.168 132.642C160.259 132.642 172.493 120.294 172.493 105.061C172.493 89.828 160.259 77.4793 145.168 77.4793C130.077 77.4793 117.842 89.828 117.842 105.061C117.842 120.294 130.077 132.642 145.168 132.642Z" fill="#F2F2F2"/>
<path d="M145.088 69.2976C160.18 69.2976 172.414 56.949 172.414 41.7161C172.414 26.4833 160.18 14.1346 145.088 14.1346C129.997 14.1346 117.763 26.4833 117.763 41.7161C117.763 56.949 129.997 69.2976 145.088 69.2976Z" fill="#F2F2F2"/>
<path d="M211.687 69.2976C226.778 69.2976 239.012 56.949 239.012 41.7161C239.012 26.4833 226.778 14.1346 211.687 14.1346C196.596 14.1346 184.362 26.4833 184.362 41.7161C184.362 56.949 196.596 69.2976 211.687 69.2976Z" fill="#F2F2F2"/>
<path d="M212.675 132.642C227.766 132.642 240 120.294 240 105.061C240 89.828 227.766 77.4793 212.675 77.4793C197.583 77.4793 185.349 89.828 185.349 105.061C185.349 120.294 197.583 132.642 212.675 132.642Z" fill="#F2F2F2"/>
<path d="M107.799 172.322C107.799 177.777 106.196 183.11 103.194 187.646C100.191 192.181 95.9236 195.717 90.9305 197.804C85.9374 199.892 80.4432 200.438 75.1426 199.374C69.842 198.309 64.973 195.683 61.1515 191.825C57.33 187.968 54.7275 183.053 53.6731 177.703C52.6188 172.353 53.1599 166.807 55.2281 161.767C57.2963 156.727 60.7987 152.42 65.2923 149.389C69.786 146.358 75.0691 144.741 80.4735 144.741C84.0664 144.725 87.6269 145.427 90.9494 146.807C94.2719 148.188 97.2906 150.219 99.8312 152.783C102.372 155.348 104.384 158.395 105.751 161.748C107.119 165.102 107.815 168.696 107.799 172.322V172.322Z" fill="#F2F2F2"/>
<path d="M146.844 199.904C161.936 199.904 174.17 187.555 174.17 172.322C174.17 157.09 161.936 144.741 146.844 144.741C131.753 144.741 119.519 157.09 119.519 172.322C119.519 187.555 131.753 199.904 146.844 199.904Z" fill="#F2F2F2"/>
<path d="M67.8084 32.7439C68.9383 29.1092 71.5078 25.7756 75.0612 24.5469C78.6149 23.3181 83.8183 25.1899 86.4899 27.8774C91.3767 32.7933 92.5692 49.6812 89.2118 55.018C88.544 54.9823 86.2397 54.9559 85.5638 54.9304L84.6076 51.7137V54.8987C83.5308 54.8651 82.4456 54.8419 81.352 54.8291C77.6852 54.7832 74.1788 53.3041 71.5701 50.7028C68.9613 48.1015 67.4533 44.5806 67.3631 40.8803C67.2756 37.3404 67.3632 34.1762 67.8084 32.7439Z" fill="#2F2E41"/>
<path d="M80.0683 44.7901C84.3692 44.7901 87.8558 41.2708 87.8558 36.9295C87.8558 32.5883 84.3692 29.069 80.0683 29.069C75.7673 29.069 72.2807 32.5883 72.2807 36.9295C72.2807 41.2708 75.7673 44.7901 80.0683 44.7901Z" fill="#9E616A"/>
<path d="M73.3474 30.0261L82.314 25.4942C84.1472 26.328 85.7259 27.6417 86.8866 29.2989C88.0473 30.9562 88.7476 32.8967 88.9149 34.9192L89.1384 37.6214L85.3836 36.6566L84.9722 33.2013L84.3346 36.3871L82.6018 35.942L82.6183 30.5778L80.8844 35.9382L74.6956 34.503L73.3474 30.0261Z" fill="#2F2E41"/>
<path d="M137.664 94.7113C139.795 94.7113 141.522 92.9679 141.522 90.8173C141.522 88.6667 139.795 86.9233 137.664 86.9233C135.534 86.9233 133.806 88.6667 133.806 90.8173C133.806 92.9679 135.534 94.7113 137.664 94.7113Z" fill="#2F2E41"/>
<path d="M143.837 109.509C149.235 109.509 153.61 105.092 153.61 99.6438C153.61 94.1956 149.235 89.7789 143.837 89.7789C138.439 89.7789 134.064 94.1956 134.064 99.6438C134.064 105.092 138.439 109.509 143.837 109.509Z" fill="#2F2E41"/>
<path d="M144.646 109.506C149.032 109.506 152.588 105.917 152.588 101.49C152.588 97.0626 149.032 93.4736 144.646 93.4736C140.259 93.4736 136.704 97.0626 136.704 101.49C136.704 105.917 140.259 109.506 144.646 109.506Z" fill="#9E616A"/>
<path d="M150.039 93.3184C148.647 92.462 147.053 91.9988 145.424 91.9771C143.794 91.9554 142.188 92.376 140.775 93.1951C139.361 94.0141 138.191 95.2014 137.388 96.6329C136.585 98.0644 136.177 99.6874 136.208 101.332C140.255 102.358 144.506 103.143 148.822 101.578L149.841 99.0598L150.442 101.579C151.756 102.122 153.074 102.58 154.392 101.574C154.445 99.9339 154.072 98.3082 153.308 96.8594C152.544 95.4106 151.417 94.1896 150.039 93.3184Z" fill="#2F2E41"/>
<path d="M134.072 80.2465C131.405 79.0118 128.057 79.5912 125.836 81.5271C123.615 83.4631 122.559 86.614 122.988 89.5445C123.425 92.534 125.226 95.1084 126.885 97.6235C128.545 100.139 130.167 102.895 130.165 105.917C130.163 108.093 129.307 110.18 127.783 111.72C126.259 113.261 124.193 114.128 122.036 114.132C124.567 115.232 127.209 116.353 129.961 116.223C132.714 116.093 135.598 114.307 136.047 111.563C136.371 109.585 135.41 107.657 134.608 105.824C133.303 102.836 132.359 99.7008 131.798 96.4852C131.53 94.9504 131.356 93.3369 131.851 91.861C132.246 90.7674 132.979 89.8307 133.941 89.1891C134.903 88.5476 136.044 88.2351 137.196 88.2977L138.105 87.4719C138.51 84.5379 136.74 81.4811 134.072 80.2465Z" fill="#2F2E41"/>
<path d="M200.535 30.9278C200.16 32.9616 199.545 34.9428 198.703 36.829C193.883 47.1217 207.61 43.7668 212.516 43.7668C217.879 43.7668 223.011 46.6137 222.227 33.9642C221.893 28.5609 217.879 24.1616 212.516 24.1616C207.934 24.1616 201.493 26.217 200.535 30.9278Z" fill="#2F2E41"/>
<path d="M211.712 43.7644C216.071 43.7644 219.604 40.198 219.604 35.7987C219.604 31.3993 216.071 27.8329 211.712 27.8329C207.354 27.8329 203.82 31.3993 203.82 35.7987C203.82 40.198 207.354 43.7644 211.712 43.7644Z" fill="#FFB6B6"/>
<path d="M206.353 27.6787C207.736 26.8278 209.32 26.3674 210.939 26.3459C212.559 26.3243 214.154 26.7423 215.559 27.5562C216.963 28.3701 218.125 29.5499 218.924 30.9723C219.722 32.3947 220.127 34.0075 220.096 35.642C216.075 36.6611 211.851 37.4409 207.562 35.8857L206.549 33.3839L205.952 35.8876C204.646 36.4264 203.337 36.8823 202.028 35.8824C201.974 34.2525 202.346 32.637 203.105 31.1974C203.864 29.7578 204.984 28.5444 206.353 27.6787V27.6787Z" fill="#2F2E41"/>
<path d="M80.574 107.656C85.9501 107.656 90.3083 103.257 90.3083 97.83C90.3083 92.4035 85.9501 88.0045 80.574 88.0045C75.1979 88.0045 70.8397 92.4035 70.8397 97.83C70.8397 103.257 75.1979 107.656 80.574 107.656Z" fill="#FFB8B8"/>
<path d="M146.243 175.183C150.821 175.183 154.533 171.437 154.533 166.816C154.533 162.194 150.821 158.448 146.243 158.448C141.665 158.448 137.953 162.194 137.953 166.816C137.953 171.437 141.665 175.183 146.243 175.183Z" fill="#9E616A"/>
<path d="M146.202 44.5296C151.123 44.5296 155.113 40.5029 155.113 35.5358C155.113 30.5686 151.123 26.5419 146.202 26.5419C141.281 26.5419 137.292 30.5686 137.292 35.5358C137.292 40.5029 141.281 44.5296 146.202 44.5296Z" fill="#FFB8B8"/>
<path d="M154.047 29.5943C154.047 29.5943 156.367 25.1177 151.263 24.7107C151.263 24.7107 146.912 20.7267 142.477 23.9824C142.477 23.9824 140.058 23.9824 138.735 26.7455C138.735 26.7455 136.833 26.0172 136.415 27.9664C136.415 27.9664 135.022 32.036 136.415 35.6987C137.807 39.3614 138.269 39.7683 138.269 39.7683C138.269 39.7683 137.292 35.2232 142.861 34.8162C148.429 34.4092 153.538 30.8882 154.002 35.3648C154.466 39.8414 154.976 37.8191 154.976 37.8191C154.976 37.8191 159.384 31.4256 154.047 29.5943Z" fill="#2F2E41"/>
<path d="M211.92 108.478C216.738 108.478 220.643 104.536 220.643 99.6733C220.643 94.8108 216.738 90.869 211.92 90.869C207.103 90.869 203.198 94.8108 203.198 99.6733C203.198 104.536 207.103 108.478 211.92 108.478Z" fill="#FFB6B6"/>
<path d="M91.6491 165.723V165.723L91.5138 165.969C92.7173 162.975 91.623 159.286 89.4761 157.029C87.3294 154.772 84.3449 153.74 81.4062 153.33C79.2246 153.026 76.9602 153.035 74.8858 153.842C71.8819 155.01 69.5869 157.714 67.6707 160.526C66.7942 161.813 65.9325 163.28 66.0198 164.888C66.1008 166.38 66.9784 167.646 67.6971 168.912C68.4158 170.178 69.016 171.749 68.5002 173.131C68.1928 173.955 67.5432 174.548 67.0161 175.221C66.489 175.895 66.0554 176.805 66.31 177.65C66.4231 177.974 66.6173 178.262 66.8737 178.487C67.1301 178.712 67.4399 178.866 67.7729 178.934C68.4101 179.084 69.0712 178.986 69.7165 178.887L86.4672 176.333C87.6054 176.159 88.6852 175.71 89.6144 175.025C90.5437 174.339 91.2948 173.436 91.8038 172.394C92.3128 171.352 92.5646 170.201 92.5376 169.039C92.5107 167.878 92.2058 166.74 91.6491 165.723V165.723Z" fill="#2F2E41"/>
<path d="M87.2735 169.273C87.9981 164.766 84.9661 160.52 80.5014 159.789C76.0368 159.057 71.8301 162.118 71.1056 166.624C70.3811 171.131 73.4131 175.377 77.8777 176.108C82.3424 176.839 86.549 173.779 87.2735 169.273Z" fill="#FFB9B9"/>
<path d="M100.992 190.533C96.2577 195.97 89.5952 199.31 82.4426 199.832C75.29 200.354 68.221 198.015 62.7616 193.322L65.1054 186.721C65.635 185.548 66.4709 184.543 67.5233 183.814C68.5757 183.085 69.8049 182.658 71.0792 182.58L72.5703 182.488L76.1257 179.393C76.1257 179.393 85.7055 179.047 85.5633 178.882L91.3661 182.405L91.3613 182.381L93.6425 182.522C94.9168 182.599 96.1462 183.026 97.1987 183.755C98.2511 184.485 99.0869 185.49 99.6163 186.662L100.992 190.533Z" fill="#14F1D9"/>
<path d="M166.993 190.533C162.259 195.97 155.596 199.31 148.444 199.832C141.291 200.354 134.222 198.015 128.763 193.322L131.107 186.721C131.636 185.548 132.472 184.543 133.524 183.814C134.577 183.085 135.806 182.658 137.08 182.58L138.571 182.488L142.127 179.393C142.127 179.393 151.707 179.047 151.564 178.882L157.367 182.405L157.362 182.381L159.644 182.522C160.918 182.599 162.147 183.026 163.2 183.755C164.252 184.485 165.088 185.49 165.617 186.662L166.993 190.533Z" fill="#14F1D9"/>
<path d="M86.9578 160.276C86.7463 159.147 85.6057 158.631 84.6284 158.381C81.7937 157.651 78.8449 157.487 75.948 157.9C73.8362 158.204 71.6743 158.874 70.142 160.538C68.9065 161.939 68.2064 163.738 68.1676 165.614C68.1051 166.735 68.3533 167.852 68.8844 168.838C69.4358 169.78 70.3756 170.464 71.3459 170.44L71.4441 170.785C75.5559 170.206 79.3754 167.624 81.781 163.796C81.3295 165.423 80.4311 166.888 79.1895 168.022C81.9655 166.901 84.3786 165.023 86.1598 162.599C86.6463 161.948 87.1185 161.135 86.9578 160.276Z" fill="#2F2E41"/>
<path d="M100.751 123.184C96.0168 128.621 89.3543 131.961 82.2017 132.483C75.0491 133.005 67.9801 130.666 62.5208 125.973L64.8645 119.372C65.3942 118.199 66.23 117.194 67.2824 116.465C68.3348 115.736 69.564 115.309 70.8383 115.231L72.3294 115.139L75.8848 112.044C75.8848 112.044 85.4646 111.698 85.3225 111.533L91.1253 115.056L91.1204 115.032L93.4016 115.173C94.6759 115.25 95.9053 115.677 96.9578 116.406C98.0102 117.136 98.846 118.141 99.3754 119.313L100.751 123.184Z" fill="#14F1D9"/>
<path d="M165.728 123.515C160.994 128.952 154.332 132.292 147.179 132.814C140.027 133.336 132.958 130.997 127.498 126.304L129.842 119.703C130.372 118.53 131.207 117.525 132.26 116.796C133.312 116.066 134.541 115.64 135.816 115.562L137.307 115.47L140.862 112.374C140.862 112.374 150.442 112.029 150.3 111.864L156.103 115.387L156.098 115.363L158.379 115.504C159.653 115.581 160.883 116.008 161.935 116.737C162.988 117.467 163.823 118.472 164.353 119.644L165.728 123.515Z" fill="#14F1D9"/>
<path d="M233.175 123.515C228.441 128.952 221.778 132.292 214.626 132.814C207.473 133.336 200.404 130.997 194.945 126.304L197.288 119.703C197.818 118.53 198.654 117.525 199.706 116.796C200.759 116.066 201.988 115.64 203.262 115.562L204.753 115.47L208.309 112.374C208.309 112.374 217.888 112.029 217.746 111.864L223.549 115.387L223.544 115.363L225.825 115.504C227.1 115.581 228.329 116.008 229.382 116.737C230.434 117.467 231.27 118.472 231.799 119.644L233.175 123.515Z" fill="#14F1D9"/>
<path d="M100.751 59.9684C96.0168 65.4055 89.3543 68.7454 82.2017 69.2672C75.0491 69.789 67.9801 67.4507 62.5208 62.7572L64.8645 56.156C65.3942 54.9836 66.23 53.9787 67.2824 53.2493C68.3348 52.5199 69.564 52.0933 70.8383 52.0154L72.3294 51.923L75.8848 48.8279C75.8848 48.8279 85.4646 48.4826 85.3225 48.3173L91.1253 51.8403L91.1204 51.816L93.4016 51.957C94.6759 52.0346 95.9053 52.461 96.9578 53.1905C98.0102 53.92 98.846 54.925 99.3754 56.0977L100.751 59.9684Z" fill="#14F1D9"/>
<path d="M165.487 60.0561C160.753 65.4932 154.091 68.8331 146.938 69.3549C139.786 69.8767 132.717 67.5384 127.257 62.8449L129.601 56.2437C130.131 55.0712 130.967 54.0664 132.019 53.337C133.071 52.6075 134.301 52.181 135.575 52.1031L137.066 52.0107L140.621 48.9155C140.621 48.9155 150.201 48.5703 150.059 48.405L155.862 51.928L155.857 51.9037L158.138 52.0447C159.412 52.1223 160.642 52.5487 161.694 53.2782C162.747 54.0077 163.583 55.0127 164.112 56.1853L165.487 60.0561Z" fill="#14F1D9"/>
<path d="M232.934 60.0561C228.2 65.4932 221.537 68.8331 214.385 69.3549C207.232 69.8767 200.163 67.5384 194.704 62.8449L197.047 56.2437C197.577 55.0712 198.413 54.0664 199.465 53.337C200.518 52.6075 201.747 52.181 203.021 52.1031L204.512 52.0107L208.068 48.9155C208.068 48.9155 217.648 48.5703 217.505 48.405L223.308 51.928L223.303 51.9037L225.585 52.0447C226.859 52.1223 228.088 52.5487 229.141 53.2782C230.193 54.0077 231.029 55.0127 231.558 56.1853L232.934 60.0561Z" fill="#14F1D9"/>
<path d="M221.12 94.213C220.383 91.5501 218.708 89.2503 216.41 87.7452C214.579 86.563 212.294 85.9594 210.219 86.5846C208.145 87.2099 206.427 89.2649 206.563 91.4853C205.814 91.2281 204.962 91.5703 204.414 92.155C203.866 92.7397 203.571 93.5262 203.36 94.3091C202.695 96.7986 202.739 99.4272 203.488 101.893L203.446 102.246C204.458 102.077 205.226 101.201 205.704 100.267C206.181 99.3329 206.456 98.2968 206.973 97.3857C207.491 96.4746 208.35 95.6618 209.375 95.6334L209.285 97.2149C210.166 96.7563 211.048 96.2977 211.93 95.8391C211.72 96.3456 211.511 96.852 211.301 97.3585C212.071 97.0336 212.841 96.7087 213.611 96.3838C213.525 96.8708 213.439 97.3579 213.353 97.8449C214.117 96.0901 216.479 95.3192 218.086 96.3003C219.019 96.8701 219.631 97.8856 219.953 98.952C220.275 100.018 220.339 101.147 220.401 102.261C221.591 99.753 221.846 96.8959 221.12 94.213V94.213Z" fill="#2F2E41"/>
<path d="M138.711 170.684C138.694 170.638 138.679 170.592 138.663 170.546C138.631 170.575 138.601 170.604 138.566 170.63L138.711 170.684Z" fill="#2F2E41"/>
<path d="M156.173 163.839C156.131 162.99 155.91 162.16 155.527 161.403C155.143 160.646 154.605 159.98 153.948 159.448C153.465 159.063 152.906 158.737 152.586 158.206C152.404 157.829 152.249 157.44 152.123 157.041C151.487 155.512 149.673 154.699 148.046 154.931C146.419 155.163 145.012 156.267 144.063 157.621C143.596 157.395 143.074 157.309 142.56 157.373C142.046 157.437 141.56 157.649 141.162 157.982C140.763 158.316 140.467 158.758 140.309 159.256C140.151 159.755 140.139 160.288 140.272 160.793C139.429 160.108 138.067 160.656 137.541 161.611C137.015 162.565 137.098 163.733 137.255 164.813C137.538 166.766 138.01 168.686 138.663 170.546C139.484 169.817 139.433 168.489 139.333 167.367C139.229 166.201 139.291 164.777 140.302 164.202C141.278 163.646 142.462 164.256 143.538 164.572C144.389 164.815 145.282 164.869 146.156 164.73C147.03 164.592 147.863 164.263 148.599 163.768C149.16 163.385 149.659 162.906 150.263 162.598C150.867 162.29 151.636 162.183 152.199 162.563C152.713 162.91 152.922 163.557 153.097 164.155C153.511 165.574 153.925 166.992 154.34 168.411C154.948 167.823 155.426 167.111 155.742 166.323C156.058 165.535 156.205 164.688 156.173 163.839V163.839Z" fill="#2F2E41"/>
<path d="M90.8439 94.3842C90.9121 93.6506 90.9434 92.914 90.9376 92.1772C90.9774 90.72 90.7129 89.2707 90.1613 87.9235C89.4829 86.4318 88.2734 85.2524 86.773 84.6195C85.2859 84.0141 83.6239 84.0156 82.1379 84.6236C80.7962 83.768 79.3054 83.0897 77.7355 83.0057C76.1655 82.9217 74.5056 83.5096 73.5381 84.8037C73.3221 85.1453 73.0767 85.4671 72.8048 85.7653C72.0271 86.4922 70.8452 86.3874 69.8115 86.2388C70.2751 86.6398 70.7389 87.0409 71.2028 87.442C70.6415 87.59 70.0803 87.738 69.5189 87.886C70.1739 88.2869 70.8288 88.6879 71.4837 89.0889C69.5824 90.2408 68.7182 92.755 68.9465 95.0385C69.1624 97.2003 70.1965 99.1772 71.4326 100.934C71.9257 99.884 71.8194 98.6272 71.8113 97.4443C71.8068 97.0606 71.83 96.677 71.8807 96.2967C76.0582 97.3075 80.4231 97.9562 84.8497 96.3509L85.7381 94.1564C85.8627 94.1693 85.9875 94.1814 86.1121 94.1948L86.6267 96.3529C87.7935 96.8343 88.9628 97.255 90.1325 96.8129C90.1894 97.1463 90.2237 97.4864 90.25 97.8134C90.3504 97.4223 90.4375 97.0283 90.5161 96.6327C90.6706 96.549 90.8187 96.4536 90.9589 96.3472C90.9872 95.6906 90.9486 95.0328 90.8439 94.3842V94.3842Z" fill="#2F2E41"/>
</svg>
